<svg xmlns="http://www.w3.org/2000/svg" xmlns:xlink="http://www.w3.org/1999/xlink" width="500" zoomAndPan="magnify" viewBox="0 0 375 374.999991" height="500" preserveAspectRatio="xMidYMid meet" version="1.0"><defs><g/><clipPath id="a4f6392a3a"><path d="M 132.613281 78.132812 L 242.054688 78.132812 L 242.054688 238.351562 L 132.613281 238.351562 Z M 132.613281 78.132812 " clip-rule="nonzero"/></clipPath></defs><g clip-path="url(#a4f6392a3a)"><path fill="#100f0d" d="M 237.140625 139.394531 L 232.347656 123.496094 L 241.125 136.824219 Z M 238.96875 159.640625 L 235.488281 159.070312 L 214.609375 133.824219 L 236.566406 140.300781 Z M 227.109375 191.585938 L 223.605469 183.859375 L 219.714844 158.222656 L 234.804688 159.761719 Z M 212.410156 209.757812 L 204.589844 209.160156 L 221.792969 186.503906 Z M 197.71875 236.757812 L 190.699219 221.753906 L 196.917969 191.898438 L 203.453125 209.515625 Z M 168.421875 188.707031 L 172.421875 204.070312 L 167.613281 208.566406 Z M 166.101562 143.292969 L 182.292969 143.292969 L 188.210938 154.792969 L 186.496094 163.054688 L 175.6875 153.664062 Z M 139.066406 142.785156 L 138.566406 140.742188 L 150.246094 139.195312 L 163.417969 142.808594 L 144.011719 146.027344 Z M 133.984375 133.054688 L 137.238281 131.234375 L 140.460938 133.257812 L 137.914062 139.808594 L 133.417969 136.507812 Z M 172.480469 89.820312 L 180.277344 91.59375 L 180.277344 95.554688 L 174.113281 96.039062 Z M 175.574219 80.738281 L 179.148438 86.410156 C 179.15625 86.417969 179.164062 86.425781 179.171875 86.441406 L 181.277344 89.09375 L 180.445312 90.835938 L 172.464844 89.023438 Z M 191.539062 79.132812 L 194.890625 89.757812 L 184.902344 83.828125 Z M 215.300781 109.355469 L 197.855469 98.515625 L 218.902344 107.066406 Z M 230.535156 121.070312 L 213.625 132.546875 L 206.972656 121.070312 L 215.382812 110.347656 Z M 231 121.691406 L 236.34375 139.429688 L 214.398438 132.960938 Z M 219.402344 157.417969 L 206.996094 148.003906 L 213.59375 133.8125 L 234.382812 158.949219 Z M 207.519531 149.375 L 218.902344 158.003906 L 222.445312 181.363281 Z M 199.570312 174.824219 L 203.113281 206.386719 L 197.210938 190.464844 Z M 196.652344 188.980469 L 187.503906 164.714844 L 199.199219 172.046875 Z M 174.414062 186.800781 L 181.726562 221.808594 L 173.253906 204.121094 Z M 173.832031 183.945312 L 172.632812 201.796875 L 168.539062 186.125 L 174.703125 171 Z M 196.292969 190.753906 L 182.878906 223.542969 L 174.726562 184.511719 Z M 195.5 189.722656 L 174.621094 183.679688 L 175.574219 169.523438 Z M 186.40625 164.007812 L 195.808594 188.929688 L 175.765625 168.621094 L 182.523438 160.625 Z M 206.59375 149.222656 L 222.40625 183.105469 L 200.085938 171.660156 Z M 188.953125 155.027344 L 205.925781 148.753906 L 199.390625 171.257812 L 187.171875 163.59375 Z M 205.136719 148.21875 L 188.808594 154.253906 L 183.242188 143.453125 Z M 198.617188 131.5 L 205.84375 147.582031 L 183.441406 142.703125 Z M 166.664062 133.484375 L 183.902344 133.484375 L 165.183594 142.492188 L 151.578125 138.757812 Z M 141.265625 133.320312 L 154.339844 121.640625 L 164.289062 119.109375 C 164.296875 119.109375 164.296875 119.101562 164.304688 119.101562 C 164.304688 119.101562 164.3125 119.101562 164.3125 119.101562 L 169.863281 117.269531 L 166.269531 132.804688 L 150.191406 138.429688 L 138.6875 139.945312 Z M 140.894531 132.613281 L 138.003906 130.796875 L 151.253906 123.359375 Z M 167.734375 107.914062 L 158.578125 110.292969 L 171.539062 98.007812 Z M 191.046875 104.203125 L 185.90625 108.953125 L 181.171875 98.96875 L 194.914062 91.402344 Z M 202.757812 109.332031 L 191.851562 104.203125 L 194.019531 97.039062 L 213.933594 109.421875 Z M 185.972656 133.21875 C 185.980469 133.203125 185.980469 133.183594 185.980469 133.167969 C 185.980469 133.160156 185.988281 133.152344 185.988281 133.136719 C 185.988281 133.105469 185.988281 133.0625 185.980469 133.023438 L 183.917969 122.296875 L 198.078125 130.933594 L 183.25 141.886719 Z M 183.03125 121.804688 L 185.132812 132.710938 L 167.082031 132.710938 L 170.667969 117.207031 Z M 183.332031 121.085938 L 171.402344 116.648438 L 185.867188 109.976562 L 201.308594 110.097656 Z M 191.457031 104.871094 L 200.90625 109.316406 L 186.769531 109.210938 Z M 163.894531 113.816406 L 158.335938 111.15625 L 168.058594 108.625 L 184.273438 109.867188 L 170.378906 116.269531 Z M 164.359375 118.269531 L 163.230469 116.421875 L 163.949219 114.671875 L 169.234375 116.664062 Z M 206.199219 120.804688 L 198.683594 130.394531 L 184.113281 121.511719 L 202.777344 110.105469 L 214.519531 110.195312 Z M 206.511719 147.195312 L 199.222656 130.957031 L 206.464844 121.722656 L 213.070312 133.113281 Z M 184.359375 84.40625 L 194.777344 90.59375 L 181.050781 98.152344 L 181.050781 91.371094 Z M 180.277344 96.339844 L 180.277344 98.804688 C 180.277344 98.804688 180.277344 98.816406 180.277344 98.824219 C 180.277344 98.839844 180.277344 98.855469 180.285156 98.871094 C 180.285156 98.878906 180.285156 98.894531 180.292969 98.902344 C 180.292969 98.917969 180.300781 98.9375 180.308594 98.953125 C 180.308594 98.953125 180.308594 98.960938 180.316406 98.96875 L 185.152344 109.15625 L 168.574219 107.890625 L 172.785156 96.917969 Z M 157.457031 111.589844 L 163.242188 114.367188 L 162.441406 116.308594 C 162.402344 116.421875 162.410156 116.550781 162.476562 116.65625 L 163.585938 118.488281 L 154.71875 120.746094 Z M 166.914062 142.519531 L 184.964844 133.832031 L 182.242188 142.519531 Z M 175.796875 154.777344 L 181.9375 160.117188 L 175.644531 167.5625 Z M 189.960938 221.519531 L 183.46875 224.15625 L 195.574219 194.554688 Z M 200.085938 172.53125 L 222.648438 184.097656 L 204.128906 208.484375 Z M 241.988281 136.726562 L 231.539062 120.859375 C 231.53125 120.859375 231.53125 120.851562 231.523438 120.851562 C 231.507812 120.820312 231.476562 120.796875 231.453125 120.769531 C 231.445312 120.769531 231.445312 120.761719 231.4375 120.761719 L 216.003906 109.832031 L 219.949219 107.316406 C 220.070312 107.234375 220.144531 107.097656 220.125 106.953125 C 220.117188 106.808594 220.023438 106.6875 219.886719 106.628906 L 194.261719 96.226562 L 195.929688 90.714844 C 195.9375 90.683594 195.945312 90.652344 195.945312 90.609375 C 195.945312 90.59375 195.945312 90.585938 195.945312 90.578125 C 195.9375 90.554688 195.9375 90.523438 195.929688 90.5 C 195.929688 90.5 195.929688 90.488281 195.929688 90.488281 L 192.117188 78.398438 C 192.078125 78.277344 191.988281 78.1875 191.867188 78.148438 C 191.757812 78.109375 191.628906 78.125 191.523438 78.195312 L 183.976562 83.546875 C 183.964844 83.546875 183.964844 83.546875 183.964844 83.546875 C 183.941406 83.5625 183.925781 83.585938 183.902344 83.601562 C 183.894531 83.609375 183.894531 83.617188 183.886719 83.625 C 183.878906 83.632812 183.871094 83.648438 183.863281 83.65625 C 183.855469 83.667969 183.855469 83.675781 183.855469 83.683594 C 183.855469 83.683594 183.847656 83.691406 183.847656 83.691406 L 181.648438 88.320312 L 179.792969 85.972656 L 175.804688 79.664062 C 175.734375 79.535156 175.589844 79.472656 175.445312 79.488281 C 175.300781 79.503906 175.171875 79.601562 175.121094 79.738281 L 171.585938 89.167969 C 171.585938 89.175781 171.585938 89.175781 171.578125 89.183594 C 171.578125 89.191406 171.570312 89.207031 171.570312 89.214844 C 171.5625 89.238281 171.5625 89.257812 171.5625 89.273438 C 171.5625 89.28125 171.5625 89.28125 171.5625 89.289062 C 171.5625 89.320312 171.5625 89.359375 171.570312 89.394531 C 171.570312 89.394531 171.570312 89.402344 171.570312 89.402344 L 173.332031 96.097656 L 172.480469 96.167969 C 172.480469 96.167969 172.472656 96.167969 172.472656 96.167969 C 172.390625 96.175781 172.3125 96.210938 172.253906 96.265625 C 172.253906 96.265625 172.246094 96.265625 172.246094 96.273438 L 156.949219 110.761719 C 156.949219 110.769531 156.941406 110.777344 156.933594 110.785156 C 156.925781 110.792969 156.917969 110.800781 156.910156 110.808594 C 156.902344 110.832031 156.886719 110.847656 156.875 110.875 C 156.867188 110.890625 156.859375 110.898438 156.859375 110.90625 C 156.851562 110.914062 156.851562 110.921875 156.84375 110.929688 L 153.824219 121.019531 L 133.445312 132.476562 C 133.339844 132.53125 133.265625 132.636719 133.25 132.75 L 132.621094 136.621094 C 132.597656 136.765625 132.65625 136.910156 132.777344 137 L 137.746094 140.644531 L 138.351562 143.113281 C 138.375 143.210938 138.429688 143.292969 138.511719 143.347656 L 143.714844 146.761719 C 143.796875 146.808594 143.898438 146.832031 143.996094 146.816406 L 165.078125 143.316406 L 175.035156 154.09375 L 174.855469 168.554688 L 167.777344 185.953125 C 167.757812 185.996094 167.75 186.027344 167.75 186.066406 C 167.75 186.074219 167.75 186.074219 167.75 186.082031 L 166.800781 209.476562 C 166.792969 209.628906 166.882812 209.773438 167.027344 209.839844 C 167.171875 209.902344 167.332031 209.878906 167.453125 209.773438 L 172.738281 204.839844 L 182.410156 225.027344 C 182.410156 225.035156 182.421875 225.035156 182.421875 225.042969 C 182.429688 225.050781 182.429688 225.058594 182.4375 225.058594 C 182.453125 225.09375 182.476562 225.125 182.5 225.148438 C 182.5 225.148438 182.507812 225.148438 182.507812 225.148438 C 182.53125 225.171875 182.566406 225.1875 182.597656 225.207031 C 182.597656 225.207031 182.605469 225.214844 182.613281 225.214844 C 182.644531 225.230469 182.679688 225.238281 182.710938 225.238281 C 182.71875 225.238281 182.71875 225.246094 182.726562 225.246094 C 182.734375 225.246094 182.75 225.246094 182.757812 225.246094 C 182.789062 225.246094 182.824219 225.238281 182.863281 225.230469 C 182.871094 225.230469 182.878906 225.230469 182.886719 225.222656 C 182.886719 225.222656 182.894531 225.222656 182.902344 225.214844 L 190.097656 222.300781 L 197.507812 238.128906 C 197.570312 238.265625 197.707031 238.351562 197.863281 238.351562 C 197.878906 238.351562 197.894531 238.351562 197.902344 238.351562 C 198.070312 238.328125 198.207031 238.207031 198.242188 238.046875 L 204.160156 209.902344 L 212.636719 210.558594 C 212.804688 210.574219 212.957031 210.46875 213.023438 210.316406 L 223.261719 184.945312 L 226.867188 192.925781 C 226.941406 193.078125 227.09375 193.167969 227.261719 193.148438 C 227.425781 193.132812 227.5625 193.011719 227.601562 192.851562 L 235.578125 159.867188 L 239.347656 160.488281 C 239.46875 160.503906 239.589844 160.464844 239.675781 160.382812 C 239.765625 160.304688 239.8125 160.175781 239.796875 160.054688 L 237.332031 140.195312 L 241.875 137.265625 C 241.964844 137.210938 242.027344 137.121094 242.046875 137.015625 C 242.070312 136.917969 242.046875 136.816406 241.988281 136.726562 " fill-opacity="1" fill-rule="nonzero"/></g><g fill="#000000" fill-opacity="1"><g transform="translate(93.277673, 271.422405)"><g><path d="M 4.25 -4.484375 L 4.4375 -2.890625 L 4.71875 -4.296875 L 7 -14.21875 L 8.484375 -14.21875 L 10.6875 -4.296875 L 10.984375 -2.859375 L 11.1875 -4.5 L 12.921875 -14.21875 L 14.703125 -14.21875 L 11.875 0 L 10.265625 0 L 7.890625 -10.359375 L 7.75 -11.203125 L 7.59375 -10.359375 L 5.140625 0 L 3.515625 0 L 0.6875 -14.21875 L 2.484375 -14.21875 Z M 4.25 -4.484375 "/></g></g></g><g fill="#000000" fill-opacity="1"><g transform="translate(110.506096, 271.422405)"><g><path d="M 8.171875 -3.71875 L 3.359375 -3.71875 L 2.25 0 L 0.421875 0 L 5 -14.21875 L 6.53125 -14.21875 L 11.125 0 L 9.28125 0 Z M 3.828125 -5.25 L 7.703125 -5.25 L 5.765625 -11.71875 Z M 3.828125 -5.25 "/></g></g></g><g fill="#000000" fill-opacity="1"><g transform="translate(124.025031, 271.422405)"><g><path d="M 10.828125 0 L 9.03125 0 L 3.328125 -10.953125 L 3.328125 0 L 1.53125 0 L 1.53125 -14.21875 L 3.328125 -14.21875 L 9.046875 -3.21875 L 9.046875 -14.21875 L 10.828125 -14.21875 Z M 10.828125 0 "/></g></g></g><g fill="#000000" fill-opacity="1"><g transform="translate(138.403006, 271.422405)"><g><path d="M 1.53125 0 L 1.53125 -14.21875 L 4.921875 -14.21875 C 6.578125 -14.21875 7.863281 -13.695312 8.78125 -12.65625 C 9.707031 -11.625 10.171875 -10.164062 10.171875 -8.28125 L 10.171875 -5.90625 C 10.171875 -4.019531 9.703125 -2.5625 8.765625 -1.53125 C 7.835938 -0.507812 6.488281 0 4.71875 0 Z M 3.328125 -12.671875 L 3.328125 -1.53125 L 4.75 -1.53125 C 6.007812 -1.53125 6.925781 -1.890625 7.5 -2.609375 C 8.082031 -3.328125 8.382812 -4.394531 8.40625 -5.8125 L 8.40625 -8.328125 C 8.40625 -9.828125 8.113281 -10.925781 7.53125 -11.625 C 6.957031 -12.320312 6.085938 -12.671875 4.921875 -12.671875 Z M 3.328125 -12.671875 "/></g></g></g><g fill="#000000" fill-opacity="1"><g transform="translate(151.814559, 271.422405)"><g><path d="M 8.34375 -6.578125 L 3.328125 -6.578125 L 3.328125 -1.53125 L 9.1875 -1.53125 L 9.1875 0 L 1.53125 0 L 1.53125 -14.21875 L 9.078125 -14.21875 L 9.078125 -12.671875 L 3.328125 -12.671875 L 3.328125 -8.109375 L 8.34375 -8.109375 Z M 8.34375 -6.578125 "/></g></g></g><g fill="#000000" fill-opacity="1"><g transform="translate(163.742317, 271.422405)"><g><path d="M 5.828125 -5.75 L 3.328125 -5.75 L 3.328125 0 L 1.53125 0 L 1.53125 -14.21875 L 5.515625 -14.21875 C 6.910156 -14.21875 7.960938 -13.851562 8.671875 -13.125 C 9.390625 -12.40625 9.75 -11.34375 9.75 -9.9375 C 9.75 -9.0625 9.554688 -8.296875 9.171875 -7.640625 C 8.785156 -6.984375 8.238281 -6.488281 7.53125 -6.15625 L 10.28125 -0.125 L 10.28125 0 L 8.359375 0 Z M 3.328125 -7.28125 L 5.5 -7.28125 C 6.25 -7.28125 6.84375 -7.519531 7.28125 -8 C 7.726562 -8.488281 7.953125 -9.132812 7.953125 -9.9375 C 7.953125 -11.757812 7.128906 -12.671875 5.484375 -12.671875 L 3.328125 -12.671875 Z M 3.328125 -7.28125 "/></g></g></g><g fill="#000000" fill-opacity="1"><g transform="translate(176.353402, 271.422405)"><g/></g></g><g fill="#000000" fill-opacity="1"><g transform="translate(182.931689, 271.422405)"><g><path d="M 4.25 -4.484375 L 4.4375 -2.890625 L 4.71875 -4.296875 L 7 -14.21875 L 8.484375 -14.21875 L 10.6875 -4.296875 L 10.984375 -2.859375 L 11.1875 -4.5 L 12.921875 -14.21875 L 14.703125 -14.21875 L 11.875 0 L 10.265625 0 L 7.890625 -10.359375 L 7.75 -11.203125 L 7.59375 -10.359375 L 5.140625 0 L 3.515625 0 L 0.6875 -14.21875 L 2.484375 -14.21875 Z M 4.25 -4.484375 "/></g></g></g><g fill="#000000" fill-opacity="1"><g transform="translate(200.160116, 271.422405)"><g><path d="M 10.84375 0 L 9.046875 0 L 9.046875 -6.578125 L 3.328125 -6.578125 L 3.328125 0 L 1.53125 0 L 1.53125 -14.21875 L 3.328125 -14.21875 L 3.328125 -8.109375 L 9.046875 -8.109375 L 9.046875 -14.21875 L 10.84375 -14.21875 Z M 10.84375 0 "/></g></g></g><g fill="#000000" fill-opacity="1"><g transform="translate(214.557618, 271.422405)"><g><path d="M 3.40625 0 L 1.609375 0 L 1.609375 -14.21875 L 3.40625 -14.21875 Z M 3.40625 0 "/></g></g></g><g fill="#000000" fill-opacity="1"><g transform="translate(221.555668, 271.422405)"><g><path d="M 7.75 -3.59375 C 7.75 -4.300781 7.554688 -4.84375 7.171875 -5.21875 C 6.785156 -5.601562 6.085938 -5.972656 5.078125 -6.328125 C 4.078125 -6.679688 3.3125 -7.054688 2.78125 -7.453125 C 2.257812 -7.847656 1.863281 -8.296875 1.59375 -8.796875 C 1.332031 -9.304688 1.203125 -9.882812 1.203125 -10.53125 C 1.203125 -11.664062 1.578125 -12.597656 2.328125 -13.328125 C 3.078125 -14.054688 4.0625 -14.421875 5.28125 -14.421875 C 6.113281 -14.421875 6.851562 -14.234375 7.5 -13.859375 C 8.15625 -13.484375 8.660156 -12.960938 9.015625 -12.296875 C 9.367188 -11.628906 9.546875 -10.898438 9.546875 -10.109375 L 7.75 -10.109375 C 7.75 -10.984375 7.535156 -11.660156 7.109375 -12.140625 C 6.679688 -12.628906 6.070312 -12.875 5.28125 -12.875 C 4.5625 -12.875 4.003906 -12.671875 3.609375 -12.265625 C 3.210938 -11.859375 3.015625 -11.289062 3.015625 -10.5625 C 3.015625 -9.96875 3.226562 -9.46875 3.65625 -9.0625 C 4.082031 -8.65625 4.742188 -8.296875 5.640625 -7.984375 C 7.046875 -7.515625 8.046875 -6.941406 8.640625 -6.265625 C 9.242188 -5.585938 9.546875 -4.703125 9.546875 -3.609375 C 9.546875 -2.460938 9.171875 -1.539062 8.421875 -0.84375 C 7.679688 -0.144531 6.664062 0.203125 5.375 0.203125 C 4.539062 0.203125 3.773438 0.0195312 3.078125 -0.34375 C 2.378906 -0.707031 1.828125 -1.21875 1.421875 -1.875 C 1.023438 -2.53125 0.828125 -3.28125 0.828125 -4.125 L 2.625 -4.125 C 2.625 -3.238281 2.867188 -2.550781 3.359375 -2.0625 C 3.859375 -1.582031 4.53125 -1.34375 5.375 -1.34375 C 6.15625 -1.34375 6.742188 -1.539062 7.140625 -1.9375 C 7.546875 -2.34375 7.75 -2.894531 7.75 -3.59375 Z M 7.75 -3.59375 "/></g></g></g><g fill="#000000" fill-opacity="1"><g transform="translate(233.912952, 271.422405)"><g><path d="M 4.71875 -6.546875 L 3.328125 -4.859375 L 3.328125 0 L 1.53125 0 L 1.53125 -14.21875 L 3.328125 -14.21875 L 3.328125 -7.359375 L 4.5 -8.90625 L 8.328125 -14.21875 L 10.46875 -14.21875 L 5.84375 -7.953125 L 10.828125 0 L 8.6875 0 Z M 4.71875 -6.546875 "/></g></g></g><g fill="#000000" fill-opacity="1"><g transform="translate(246.807135, 271.422405)"><g><path d="M 8.34375 -6.578125 L 3.328125 -6.578125 L 3.328125 -1.53125 L 9.1875 -1.53125 L 9.1875 0 L 1.53125 0 L 1.53125 -14.21875 L 9.078125 -14.21875 L 9.078125 -12.671875 L 3.328125 -12.671875 L 3.328125 -8.109375 L 8.34375 -8.109375 Z M 8.34375 -6.578125 "/></g></g></g><g fill="#000000" fill-opacity="1"><g transform="translate(258.734899, 271.422405)"><g><path d="M 5.828125 -5.75 L 3.328125 -5.75 L 3.328125 0 L 1.53125 0 L 1.53125 -14.21875 L 5.515625 -14.21875 C 6.910156 -14.21875 7.960938 -13.851562 8.671875 -13.125 C 9.390625 -12.40625 9.75 -11.34375 9.75 -9.9375 C 9.75 -9.0625 9.554688 -8.296875 9.171875 -7.640625 C 8.785156 -6.984375 8.238281 -6.488281 7.53125 -6.15625 L 10.28125 -0.125 L 10.28125 0 L 8.359375 0 Z M 3.328125 -7.28125 L 5.5 -7.28125 C 6.25 -7.28125 6.84375 -7.519531 7.28125 -8 C 7.726562 -8.488281 7.953125 -9.132812 7.953125 -9.9375 C 7.953125 -11.757812 7.128906 -12.671875 5.484375 -12.671875 L 3.328125 -12.671875 Z M 3.328125 -7.28125 "/></g></g></g><g fill="#000000" fill-opacity="1"><g transform="translate(271.34599, 271.422405)"><g><path d="M 7.75 -3.59375 C 7.75 -4.300781 7.554688 -4.84375 7.171875 -5.21875 C 6.785156 -5.601562 6.085938 -5.972656 5.078125 -6.328125 C 4.078125 -6.679688 3.3125 -7.054688 2.78125 -7.453125 C 2.257812 -7.847656 1.863281 -8.296875 1.59375 -8.796875 C 1.332031 -9.304688 1.203125 -9.882812 1.203125 -10.53125 C 1.203125 -11.664062 1.578125 -12.597656 2.328125 -13.328125 C 3.078125 -14.054688 4.0625 -14.421875 5.28125 -14.421875 C 6.113281 -14.421875 6.851562 -14.234375 7.5 -13.859375 C 8.15625 -13.484375 8.660156 -12.960938 9.015625 -12.296875 C 9.367188 -11.628906 9.546875 -10.898438 9.546875 -10.109375 L 7.75 -10.109375 C 7.75 -10.984375 7.535156 -11.660156 7.109375 -12.140625 C 6.679688 -12.628906 6.070312 -12.875 5.28125 -12.875 C 4.5625 -12.875 4.003906 -12.671875 3.609375 -12.265625 C 3.210938 -11.859375 3.015625 -11.289062 3.015625 -10.5625 C 3.015625 -9.96875 3.226562 -9.46875 3.65625 -9.0625 C 4.082031 -8.65625 4.742188 -8.296875 5.640625 -7.984375 C 7.046875 -7.515625 8.046875 -6.941406 8.640625 -6.265625 C 9.242188 -5.585938 9.546875 -4.703125 9.546875 -3.609375 C 9.546875 -2.460938 9.171875 -1.539062 8.421875 -0.84375 C 7.679688 -0.144531 6.664062 0.203125 5.375 0.203125 C 4.539062 0.203125 3.773438 0.0195312 3.078125 -0.34375 C 2.378906 -0.707031 1.828125 -1.21875 1.421875 -1.875 C 1.023438 -2.53125 0.828125 -3.28125 0.828125 -4.125 L 2.625 -4.125 C 2.625 -3.238281 2.867188 -2.550781 3.359375 -2.0625 C 3.859375 -1.582031 4.53125 -1.34375 5.375 -1.34375 C 6.15625 -1.34375 6.742188 -1.539062 7.140625 -1.9375 C 7.546875 -2.34375 7.75 -2.894531 7.75 -3.59375 Z M 7.75 -3.59375 "/></g></g></g></svg>