<svg xmlns="http://www.w3.org/2000/svg" xmlns:xlink="http://www.w3.org/1999/xlink" width="500" zoomAndPan="magnify" viewBox="0 0 375 374.999991" height="500" preserveAspectRatio="xMidYMid meet" version="1.0"><defs><g/><clipPath id="1b9dedea07"><path d="M 132.613281 78.132812 L 242.113281 78.132812 L 242.113281 238.527344 L 132.613281 238.527344 Z M 132.613281 78.132812 " clip-rule="nonzero"/></clipPath></defs><g clip-path="url(#1b9dedea07)"><path fill="#f6f2f2" d="M 237.398438 139.464844 L 232.59375 123.546875 L 241.394531 136.886719 Z M 239.230469 159.730469 L 235.742188 159.160156 L 214.8125 133.882812 L 236.824219 140.367188 Z M 227.34375 191.710938 L 223.832031 183.972656 L 219.929688 158.3125 L 235.054688 159.851562 Z M 212.605469 209.902344 L 204.765625 209.304688 L 222.011719 186.621094 Z M 197.878906 236.929688 L 190.84375 221.910156 L 197.078125 192.023438 L 203.625 209.660156 Z M 168.507812 188.828125 L 172.519531 204.210938 L 167.699219 208.707031 Z M 166.183594 143.363281 L 182.414062 143.363281 L 188.347656 154.878906 L 186.628906 163.148438 L 175.792969 153.75 Z M 139.082031 142.855469 L 138.582031 140.8125 L 150.289062 139.261719 L 163.492188 142.878906 L 144.039062 146.101562 Z M 133.988281 133.117188 L 137.25 131.292969 L 140.480469 133.316406 L 137.925781 139.875 L 133.421875 136.574219 Z M 172.578125 89.832031 L 180.394531 91.609375 L 180.394531 95.574219 L 174.21875 96.058594 Z M 175.679688 80.742188 L 179.265625 86.417969 C 179.273438 86.425781 179.28125 86.433594 179.289062 86.449219 L 181.394531 89.105469 L 180.5625 90.851562 L 172.5625 89.035156 Z M 191.683594 79.132812 L 195.042969 89.769531 L 185.03125 83.835938 Z M 215.503906 109.390625 L 198.015625 98.539062 L 219.113281 107.097656 Z M 230.773438 121.117188 L 213.824219 132.609375 L 207.15625 121.117188 L 215.585938 110.386719 Z M 231.242188 121.738281 L 236.597656 139.496094 L 214.601562 133.019531 Z M 219.617188 157.503906 L 207.179688 148.078125 L 213.792969 133.875 L 234.636719 159.039062 Z M 207.703125 149.453125 L 219.113281 158.09375 L 222.667969 181.476562 Z M 199.734375 174.929688 L 203.289062 206.527344 L 197.367188 190.585938 Z M 196.8125 189.101562 L 187.636719 164.8125 L 199.363281 172.152344 Z M 174.515625 186.921875 L 181.847656 221.964844 L 173.351562 204.257812 Z M 173.933594 184.0625 L 172.730469 201.933594 L 168.628906 186.242188 L 174.808594 171.101562 Z M 196.449219 190.878906 L 183.003906 223.703125 L 174.832031 184.628906 Z M 195.65625 189.84375 L 174.726562 183.796875 L 175.679688 169.625 Z M 186.539062 164.101562 L 195.964844 189.050781 L 175.871094 168.71875 L 182.648438 160.71875 Z M 206.777344 149.300781 L 222.628906 183.222656 L 200.25 171.765625 Z M 189.089844 155.113281 L 206.105469 148.832031 L 199.558594 171.359375 L 187.308594 163.6875 Z M 205.3125 148.296875 L 188.945312 154.335938 L 183.367188 143.523438 Z M 198.78125 131.558594 L 206.023438 147.660156 L 183.566406 142.773438 Z M 166.746094 133.542969 L 184.027344 133.542969 L 165.261719 142.5625 L 151.625 138.824219 Z M 141.285156 133.382812 L 154.394531 121.691406 L 164.367188 119.15625 C 164.375 119.15625 164.375 119.144531 164.382812 119.144531 C 164.382812 119.144531 164.390625 119.144531 164.390625 119.144531 L 169.953125 117.3125 L 166.351562 132.867188 L 150.234375 138.496094 L 138.703125 140.011719 Z M 140.914062 132.671875 L 138.015625 130.855469 L 151.300781 123.410156 Z M 167.820312 107.945312 L 158.640625 110.328125 L 171.632812 98.03125 Z M 191.191406 104.230469 L 186.039062 108.988281 L 181.289062 98.992188 L 195.066406 91.417969 Z M 202.933594 109.367188 L 192 104.230469 L 194.171875 97.0625 L 214.132812 109.457031 Z M 186.105469 133.277344 C 186.113281 133.261719 186.113281 133.246094 186.113281 133.230469 C 186.113281 133.222656 186.121094 133.214844 186.121094 133.195312 C 186.121094 133.164062 186.121094 133.125 186.113281 133.085938 L 184.042969 122.34375 L 198.242188 130.992188 L 183.375 141.957031 Z M 183.15625 121.851562 L 185.265625 132.769531 L 167.167969 132.769531 L 170.761719 117.25 Z M 183.453125 121.132812 L 171.496094 116.691406 L 186 110.011719 L 201.480469 110.132812 Z M 191.601562 104.902344 L 201.074219 109.351562 L 186.902344 109.246094 Z M 163.96875 113.855469 L 158.398438 111.191406 L 168.144531 108.65625 L 184.398438 109.902344 L 170.46875 116.3125 Z M 164.4375 118.316406 L 163.308594 116.464844 L 164.027344 114.714844 L 169.324219 116.707031 Z M 206.378906 120.851562 L 198.847656 130.453125 L 184.238281 121.5625 L 202.949219 110.144531 L 214.722656 110.230469 Z M 206.695312 147.273438 L 199.386719 131.015625 L 206.648438 121.769531 L 213.269531 133.171875 Z M 184.488281 84.414062 L 194.929688 90.609375 L 181.167969 98.175781 L 181.167969 91.382812 Z M 180.394531 96.359375 L 180.394531 98.828125 C 180.394531 98.828125 180.394531 98.835938 180.394531 98.84375 C 180.394531 98.863281 180.394531 98.878906 180.402344 98.894531 C 180.402344 98.902344 180.402344 98.917969 180.410156 98.925781 C 180.410156 98.941406 180.417969 98.957031 180.425781 98.976562 C 180.425781 98.976562 180.425781 98.984375 180.433594 98.992188 L 185.28125 109.191406 L 168.660156 107.921875 L 172.886719 96.941406 Z M 157.519531 111.628906 L 163.316406 114.40625 L 162.515625 116.351562 C 162.476562 116.464844 162.484375 116.59375 162.546875 116.699219 L 163.664062 118.53125 L 154.773438 120.792969 Z M 166.996094 142.589844 L 185.09375 133.890625 L 182.363281 142.589844 Z M 175.90625 154.863281 L 182.058594 160.207031 L 175.75 167.660156 Z M 190.101562 221.675781 L 183.59375 224.316406 L 195.730469 194.679688 Z M 200.25 172.636719 L 222.871094 184.214844 L 204.304688 208.625 Z M 242.257812 136.789062 L 231.785156 120.90625 C 231.777344 120.90625 231.777344 120.898438 231.769531 120.898438 C 231.753906 120.867188 231.71875 120.84375 231.695312 120.816406 C 231.6875 120.816406 231.6875 120.808594 231.679688 120.808594 L 216.207031 109.867188 L 220.164062 107.347656 C 220.285156 107.269531 220.359375 107.128906 220.34375 106.984375 C 220.335938 106.839844 220.238281 106.71875 220.101562 106.664062 L 194.414062 96.246094 L 196.085938 90.730469 C 196.09375 90.699219 196.101562 90.664062 196.101562 90.625 C 196.101562 90.609375 196.101562 90.601562 196.101562 90.59375 C 196.09375 90.570312 196.09375 90.535156 196.085938 90.511719 C 196.085938 90.511719 196.085938 90.503906 196.085938 90.503906 L 192.265625 78.398438 C 192.226562 78.277344 192.136719 78.191406 192.015625 78.148438 C 191.902344 78.109375 191.773438 78.125 191.667969 78.199219 L 184.101562 83.550781 C 184.09375 83.550781 184.09375 83.550781 184.09375 83.550781 C 184.070312 83.566406 184.050781 83.59375 184.027344 83.609375 C 184.019531 83.617188 184.019531 83.625 184.011719 83.632812 C 184.003906 83.640625 183.996094 83.65625 183.988281 83.664062 C 183.980469 83.671875 183.980469 83.679688 183.980469 83.6875 C 183.980469 83.6875 183.972656 83.695312 183.972656 83.695312 L 181.765625 88.332031 L 179.910156 85.980469 L 175.914062 79.667969 C 175.839844 79.539062 175.695312 79.472656 175.550781 79.488281 C 175.402344 79.507812 175.273438 79.601562 175.226562 79.738281 L 171.679688 89.179688 C 171.679688 89.1875 171.679688 89.1875 171.671875 89.195312 C 171.671875 89.203125 171.664062 89.21875 171.664062 89.226562 C 171.65625 89.253906 171.65625 89.269531 171.65625 89.285156 C 171.65625 89.292969 171.65625 89.292969 171.65625 89.300781 C 171.65625 89.332031 171.65625 89.375 171.664062 89.40625 C 171.664062 89.40625 171.664062 89.414062 171.664062 89.414062 L 173.433594 96.117188 L 172.578125 96.1875 C 172.578125 96.1875 172.570312 96.1875 172.570312 96.1875 C 172.488281 96.195312 172.410156 96.230469 172.351562 96.285156 C 172.351562 96.285156 172.34375 96.285156 172.34375 96.292969 L 157.007812 110.796875 C 157.007812 110.804688 157 110.8125 156.992188 110.820312 C 156.984375 110.828125 156.976562 110.835938 156.96875 110.84375 C 156.960938 110.871094 156.945312 110.886719 156.9375 110.910156 C 156.929688 110.925781 156.921875 110.933594 156.921875 110.941406 C 156.914062 110.949219 156.914062 110.957031 156.902344 110.964844 L 153.875 121.066406 L 133.445312 132.535156 C 133.339844 132.589844 133.269531 132.695312 133.253906 132.808594 L 132.621094 136.6875 C 132.597656 136.832031 132.65625 136.976562 132.777344 137.066406 L 137.757812 140.714844 L 138.363281 143.1875 C 138.386719 143.28125 138.445312 143.363281 138.523438 143.421875 L 143.742188 146.835938 C 143.824219 146.882812 143.925781 146.910156 144.023438 146.890625 L 165.15625 143.386719 L 175.136719 154.175781 L 174.960938 168.65625 L 167.863281 186.074219 C 167.847656 186.113281 167.835938 186.144531 167.835938 186.1875 C 167.835938 186.195312 167.835938 186.195312 167.835938 186.203125 L 166.886719 209.621094 C 166.875 209.773438 166.964844 209.917969 167.109375 209.984375 C 167.257812 210.046875 167.417969 210.023438 167.539062 209.917969 L 172.835938 204.976562 L 182.535156 225.1875 C 182.535156 225.195312 182.542969 225.195312 182.542969 225.203125 C 182.550781 225.210938 182.550781 225.222656 182.558594 225.222656 C 182.574219 225.253906 182.597656 225.285156 182.625 225.308594 C 182.625 225.308594 182.632812 225.308594 182.632812 225.308594 C 182.65625 225.332031 182.6875 225.351562 182.71875 225.367188 C 182.71875 225.367188 182.726562 225.375 182.738281 225.375 C 182.769531 225.390625 182.800781 225.398438 182.832031 225.398438 C 182.839844 225.398438 182.839844 225.40625 182.847656 225.40625 C 182.859375 225.40625 182.875 225.40625 182.882812 225.40625 C 182.914062 225.40625 182.945312 225.398438 182.988281 225.390625 C 182.996094 225.390625 183.003906 225.390625 183.011719 225.382812 C 183.011719 225.382812 183.019531 225.382812 183.027344 225.375 L 190.238281 222.460938 L 197.667969 238.300781 C 197.730469 238.441406 197.867188 238.527344 198.023438 238.527344 C 198.039062 238.527344 198.054688 238.527344 198.0625 238.527344 C 198.234375 238.503906 198.371094 238.382812 198.402344 238.222656 L 204.335938 210.046875 L 212.832031 210.703125 C 213 210.71875 213.15625 210.613281 213.21875 210.460938 L 223.484375 185.0625 L 227.101562 193.050781 C 227.171875 193.203125 227.328125 193.292969 227.496094 193.277344 C 227.65625 193.257812 227.796875 193.136719 227.835938 192.976562 L 235.832031 159.957031 L 239.609375 160.578125 C 239.730469 160.597656 239.851562 160.554688 239.941406 160.476562 C 240.027344 160.394531 240.078125 160.265625 240.0625 160.144531 L 237.589844 140.261719 L 242.144531 137.332031 C 242.234375 137.273438 242.296875 137.1875 242.3125 137.082031 C 242.339844 136.984375 242.3125 136.878906 242.257812 136.789062 " fill-opacity="1" fill-rule="nonzero"/></g><g fill="#f6f2f2" fill-opacity="1"><g transform="translate(93.277673, 271.422405)"><g><path d="M 4.25 -4.484375 L 4.4375 -2.890625 L 4.71875 -4.296875 L 7 -14.21875 L 8.484375 -14.21875 L 10.6875 -4.296875 L 10.984375 -2.859375 L 11.1875 -4.5 L 12.921875 -14.21875 L 14.703125 -14.21875 L 11.875 0 L 10.265625 0 L 7.890625 -10.359375 L 7.75 -11.203125 L 7.59375 -10.359375 L 5.140625 0 L 3.515625 0 L 0.6875 -14.21875 L 2.484375 -14.21875 Z M 4.25 -4.484375 "/></g></g></g><g fill="#f6f2f2" fill-opacity="1"><g transform="translate(110.506096, 271.422405)"><g><path d="M 8.171875 -3.71875 L 3.359375 -3.71875 L 2.25 0 L 0.421875 0 L 5 -14.21875 L 6.53125 -14.21875 L 11.125 0 L 9.28125 0 Z M 3.828125 -5.25 L 7.703125 -5.25 L 5.765625 -11.71875 Z M 3.828125 -5.25 "/></g></g></g><g fill="#f6f2f2" fill-opacity="1"><g transform="translate(124.025031, 271.422405)"><g><path d="M 10.828125 0 L 9.03125 0 L 3.328125 -10.953125 L 3.328125 0 L 1.53125 0 L 1.53125 -14.21875 L 3.328125 -14.21875 L 9.046875 -3.21875 L 9.046875 -14.21875 L 10.828125 -14.21875 Z M 10.828125 0 "/></g></g></g><g fill="#f6f2f2" fill-opacity="1"><g transform="translate(138.403006, 271.422405)"><g><path d="M 1.53125 0 L 1.53125 -14.21875 L 4.921875 -14.21875 C 6.578125 -14.21875 7.863281 -13.695312 8.78125 -12.65625 C 9.707031 -11.625 10.171875 -10.164062 10.171875 -8.28125 L 10.171875 -5.90625 C 10.171875 -4.019531 9.703125 -2.5625 8.765625 -1.53125 C 7.835938 -0.507812 6.488281 0 4.71875 0 Z M 3.328125 -12.671875 L 3.328125 -1.53125 L 4.75 -1.53125 C 6.007812 -1.53125 6.925781 -1.890625 7.5 -2.609375 C 8.082031 -3.328125 8.382812 -4.394531 8.40625 -5.8125 L 8.40625 -8.328125 C 8.40625 -9.828125 8.113281 -10.925781 7.53125 -11.625 C 6.957031 -12.320312 6.085938 -12.671875 4.921875 -12.671875 Z M 3.328125 -12.671875 "/></g></g></g><g fill="#f6f2f2" fill-opacity="1"><g transform="translate(151.814559, 271.422405)"><g><path d="M 8.34375 -6.578125 L 3.328125 -6.578125 L 3.328125 -1.53125 L 9.1875 -1.53125 L 9.1875 0 L 1.53125 0 L 1.53125 -14.21875 L 9.078125 -14.21875 L 9.078125 -12.671875 L 3.328125 -12.671875 L 3.328125 -8.109375 L 8.34375 -8.109375 Z M 8.34375 -6.578125 "/></g></g></g><g fill="#f6f2f2" fill-opacity="1"><g transform="translate(163.742317, 271.422405)"><g><path d="M 5.828125 -5.75 L 3.328125 -5.75 L 3.328125 0 L 1.53125 0 L 1.53125 -14.21875 L 5.515625 -14.21875 C 6.910156 -14.21875 7.960938 -13.851562 8.671875 -13.125 C 9.390625 -12.40625 9.75 -11.34375 9.75 -9.9375 C 9.75 -9.0625 9.554688 -8.296875 9.171875 -7.640625 C 8.785156 -6.984375 8.238281 -6.488281 7.53125 -6.15625 L 10.28125 -0.125 L 10.28125 0 L 8.359375 0 Z M 3.328125 -7.28125 L 5.5 -7.28125 C 6.25 -7.28125 6.84375 -7.519531 7.28125 -8 C 7.726562 -8.488281 7.953125 -9.132812 7.953125 -9.9375 C 7.953125 -11.757812 7.128906 -12.671875 5.484375 -12.671875 L 3.328125 -12.671875 Z M 3.328125 -7.28125 "/></g></g></g><g fill="#f6f2f2" fill-opacity="1"><g transform="translate(176.353402, 271.422405)"><g/></g></g><g fill="#f6f2f2" fill-opacity="1"><g transform="translate(182.931689, 271.422405)"><g><path d="M 4.25 -4.484375 L 4.4375 -2.890625 L 4.71875 -4.296875 L 7 -14.21875 L 8.484375 -14.21875 L 10.6875 -4.296875 L 10.984375 -2.859375 L 11.1875 -4.5 L 12.921875 -14.21875 L 14.703125 -14.21875 L 11.875 0 L 10.265625 0 L 7.890625 -10.359375 L 7.75 -11.203125 L 7.59375 -10.359375 L 5.140625 0 L 3.515625 0 L 0.6875 -14.21875 L 2.484375 -14.21875 Z M 4.25 -4.484375 "/></g></g></g><g fill="#f6f2f2" fill-opacity="1"><g transform="translate(200.160116, 271.422405)"><g><path d="M 10.84375 0 L 9.046875 0 L 9.046875 -6.578125 L 3.328125 -6.578125 L 3.328125 0 L 1.53125 0 L 1.53125 -14.21875 L 3.328125 -14.21875 L 3.328125 -8.109375 L 9.046875 -8.109375 L 9.046875 -14.21875 L 10.84375 -14.21875 Z M 10.84375 0 "/></g></g></g><g fill="#f6f2f2" fill-opacity="1"><g transform="translate(214.557618, 271.422405)"><g><path d="M 3.40625 0 L 1.609375 0 L 1.609375 -14.21875 L 3.40625 -14.21875 Z M 3.40625 0 "/></g></g></g><g fill="#f6f2f2" fill-opacity="1"><g transform="translate(221.555668, 271.422405)"><g><path d="M 7.75 -3.59375 C 7.75 -4.300781 7.554688 -4.84375 7.171875 -5.21875 C 6.785156 -5.601562 6.085938 -5.972656 5.078125 -6.328125 C 4.078125 -6.679688 3.3125 -7.054688 2.78125 -7.453125 C 2.257812 -7.847656 1.863281 -8.296875 1.59375 -8.796875 C 1.332031 -9.304688 1.203125 -9.882812 1.203125 -10.53125 C 1.203125 -11.664062 1.578125 -12.597656 2.328125 -13.328125 C 3.078125 -14.054688 4.0625 -14.421875 5.28125 -14.421875 C 6.113281 -14.421875 6.851562 -14.234375 7.5 -13.859375 C 8.15625 -13.484375 8.660156 -12.960938 9.015625 -12.296875 C 9.367188 -11.628906 9.546875 -10.898438 9.546875 -10.109375 L 7.75 -10.109375 C 7.75 -10.984375 7.535156 -11.660156 7.109375 -12.140625 C 6.679688 -12.628906 6.070312 -12.875 5.28125 -12.875 C 4.5625 -12.875 4.003906 -12.671875 3.609375 -12.265625 C 3.210938 -11.859375 3.015625 -11.289062 3.015625 -10.5625 C 3.015625 -9.96875 3.226562 -9.46875 3.65625 -9.0625 C 4.082031 -8.65625 4.742188 -8.296875 5.640625 -7.984375 C 7.046875 -7.515625 8.046875 -6.941406 8.640625 -6.265625 C 9.242188 -5.585938 9.546875 -4.703125 9.546875 -3.609375 C 9.546875 -2.460938 9.171875 -1.539062 8.421875 -0.84375 C 7.679688 -0.144531 6.664062 0.203125 5.375 0.203125 C 4.539062 0.203125 3.773438 0.0195312 3.078125 -0.34375 C 2.378906 -0.707031 1.828125 -1.21875 1.421875 -1.875 C 1.023438 -2.53125 0.828125 -3.28125 0.828125 -4.125 L 2.625 -4.125 C 2.625 -3.238281 2.867188 -2.550781 3.359375 -2.0625 C 3.859375 -1.582031 4.53125 -1.34375 5.375 -1.34375 C 6.15625 -1.34375 6.742188 -1.539062 7.140625 -1.9375 C 7.546875 -2.34375 7.75 -2.894531 7.75 -3.59375 Z M 7.75 -3.59375 "/></g></g></g><g fill="#f6f2f2" fill-opacity="1"><g transform="translate(233.912952, 271.422405)"><g><path d="M 4.71875 -6.546875 L 3.328125 -4.859375 L 3.328125 0 L 1.53125 0 L 1.53125 -14.21875 L 3.328125 -14.21875 L 3.328125 -7.359375 L 4.5 -8.90625 L 8.328125 -14.21875 L 10.46875 -14.21875 L 5.84375 -7.953125 L 10.828125 0 L 8.6875 0 Z M 4.71875 -6.546875 "/></g></g></g><g fill="#f6f2f2" fill-opacity="1"><g transform="translate(246.807135, 271.422405)"><g><path d="M 8.34375 -6.578125 L 3.328125 -6.578125 L 3.328125 -1.53125 L 9.1875 -1.53125 L 9.1875 0 L 1.53125 0 L 1.53125 -14.21875 L 9.078125 -14.21875 L 9.078125 -12.671875 L 3.328125 -12.671875 L 3.328125 -8.109375 L 8.34375 -8.109375 Z M 8.34375 -6.578125 "/></g></g></g><g fill="#f6f2f2" fill-opacity="1"><g transform="translate(258.734899, 271.422405)"><g><path d="M 5.828125 -5.75 L 3.328125 -5.75 L 3.328125 0 L 1.53125 0 L 1.53125 -14.21875 L 5.515625 -14.21875 C 6.910156 -14.21875 7.960938 -13.851562 8.671875 -13.125 C 9.390625 -12.40625 9.75 -11.34375 9.75 -9.9375 C 9.75 -9.0625 9.554688 -8.296875 9.171875 -7.640625 C 8.785156 -6.984375 8.238281 -6.488281 7.53125 -6.15625 L 10.28125 -0.125 L 10.28125 0 L 8.359375 0 Z M 3.328125 -7.28125 L 5.5 -7.28125 C 6.25 -7.28125 6.84375 -7.519531 7.28125 -8 C 7.726562 -8.488281 7.953125 -9.132812 7.953125 -9.9375 C 7.953125 -11.757812 7.128906 -12.671875 5.484375 -12.671875 L 3.328125 -12.671875 Z M 3.328125 -7.28125 "/></g></g></g><g fill="#f6f2f2" fill-opacity="1"><g transform="translate(271.34599, 271.422405)"><g><path d="M 7.75 -3.59375 C 7.75 -4.300781 7.554688 -4.84375 7.171875 -5.21875 C 6.785156 -5.601562 6.085938 -5.972656 5.078125 -6.328125 C 4.078125 -6.679688 3.3125 -7.054688 2.78125 -7.453125 C 2.257812 -7.847656 1.863281 -8.296875 1.59375 -8.796875 C 1.332031 -9.304688 1.203125 -9.882812 1.203125 -10.53125 C 1.203125 -11.664062 1.578125 -12.597656 2.328125 -13.328125 C 3.078125 -14.054688 4.0625 -14.421875 5.28125 -14.421875 C 6.113281 -14.421875 6.851562 -14.234375 7.5 -13.859375 C 8.15625 -13.484375 8.660156 -12.960938 9.015625 -12.296875 C 9.367188 -11.628906 9.546875 -10.898438 9.546875 -10.109375 L 7.75 -10.109375 C 7.75 -10.984375 7.535156 -11.660156 7.109375 -12.140625 C 6.679688 -12.628906 6.070312 -12.875 5.28125 -12.875 C 4.5625 -12.875 4.003906 -12.671875 3.609375 -12.265625 C 3.210938 -11.859375 3.015625 -11.289062 3.015625 -10.5625 C 3.015625 -9.96875 3.226562 -9.46875 3.65625 -9.0625 C 4.082031 -8.65625 4.742188 -8.296875 5.640625 -7.984375 C 7.046875 -7.515625 8.046875 -6.941406 8.640625 -6.265625 C 9.242188 -5.585938 9.546875 -4.703125 9.546875 -3.609375 C 9.546875 -2.460938 9.171875 -1.539062 8.421875 -0.84375 C 7.679688 -0.144531 6.664062 0.203125 5.375 0.203125 C 4.539062 0.203125 3.773438 0.0195312 3.078125 -0.34375 C 2.378906 -0.707031 1.828125 -1.21875 1.421875 -1.875 C 1.023438 -2.53125 0.828125 -3.28125 0.828125 -4.125 L 2.625 -4.125 C 2.625 -3.238281 2.867188 -2.550781 3.359375 -2.0625 C 3.859375 -1.582031 4.53125 -1.34375 5.375 -1.34375 C 6.15625 -1.34375 6.742188 -1.539062 7.140625 -1.9375 C 7.546875 -2.34375 7.75 -2.894531 7.75 -3.59375 Z M 7.75 -3.59375 "/></g></g></g></svg>