<svg xmlns="http://www.w3.org/2000/svg" xmlns:xlink="http://www.w3.org/1999/xlink" width="500" zoomAndPan="magnify" viewBox="0 0 375 374.999991" height="500" preserveAspectRatio="xMidYMid meet" version="1.0"><defs><g/><clipPath id="217d4accbb"><path d="M 139 84.675781 L 236 84.675781 L 236 229 L 139 229 Z M 139 84.675781 " clip-rule="nonzero"/></clipPath></defs><g clip-path="url(#217d4accbb)"><path fill="#37160c" d="M 187.519531 226.328125 C 190.652344 226.367188 193.691406 225.84375 196.632812 224.757812 C 197.703125 227.429688 200.644531 228.3125 202.824219 226.703125 C 203.273438 226.992188 203.753906 227.210938 204.265625 227.363281 C 204.777344 227.511719 205.300781 227.589844 205.835938 227.59375 C 206.371094 227.59375 206.894531 227.523438 207.40625 227.378906 C 207.921875 227.234375 208.402344 227.019531 208.855469 226.734375 C 211.492188 228.394531 213.664062 227.570312 214.792969 225.683594 C 226.976562 234.667969 234.242188 222.957031 227.140625 218.640625 C 237.367188 200.957031 226.402344 197.265625 223.203125 196.582031 C 222.652344 186.210938 218.300781 179.078125 216.546875 176.589844 C 228.0625 170.960938 235.191406 161.332031 234.886719 148.40625 C 234.769531 143.4375 233.542969 138.046875 231.117188 132.335938 C 241.898438 100.734375 229.097656 85.160156 229.0625 85.113281 C 228.832031 84.804688 228.527344 84.683594 228.148438 84.746094 C 210.90625 84.910156 200.417969 97.945312 198.480469 100.554688 C 191.171875 98.980469 183.859375 98.980469 176.546875 100.554688 C 174.605469 97.921875 164.117188 84.910156 146.886719 84.746094 C 146.507812 84.679688 146.203125 84.800781 145.972656 85.105469 C 145.9375 85.152344 133.140625 100.726562 143.921875 132.335938 C 141.484375 138.054688 140.261719 143.441406 140.148438 148.410156 C 139.832031 161.476562 147.140625 171.019531 158.484375 176.597656 C 156.726562 179.085938 152.378906 186.226562 151.828125 196.589844 C 148.628906 197.265625 137.664062 200.960938 147.890625 218.640625 C 143.570312 221.265625 144.515625 226.878906 149.109375 228.535156 C 151.777344 229.496094 155.671875 229.066406 160.253906 225.679688 C 161.378906 227.566406 163.554688 228.386719 166.183594 226.730469 C 166.636719 227.011719 167.121094 227.226562 167.632812 227.371094 C 168.148438 227.519531 168.671875 227.589844 169.207031 227.585938 C 169.742188 227.585938 170.265625 227.507812 170.777344 227.355469 C 171.289062 227.207031 171.769531 226.984375 172.222656 226.699219 C 174.398438 228.304688 177.339844 227.425781 178.40625 224.75 C 181.347656 225.839844 184.386719 226.363281 187.523438 226.320312 " fill-opacity="1" fill-rule="nonzero"/></g><path fill="#ff7c6c" d="M 228.046875 87 C 230.171875 90.144531 238.046875 104.15625 229.933594 129.746094 C 227.210938 124.089844 223.335938 118.117188 218.214844 111.917969 C 213.519531 97.484375 224.976562 88.972656 228.042969 87 " fill-opacity="1" fill-rule="nonzero"/><path fill="#f75c4c" d="M 232.761719 117.921875 C 232.117188 121.933594 231.171875 125.875 229.929688 129.746094 C 227.210938 124.089844 223.332031 118.117188 218.210938 111.917969 C 213.515625 97.484375 224.976562 88.972656 228.039062 87 C 228.039062 87 216.792969 104.101562 232.753906 117.921875 " fill-opacity="1" fill-rule="nonzero"/><path fill="#d18722" d="M 209.347656 216.230469 C 215.472656 218.921875 214.511719 227.777344 210.03125 225.195312 C 210.554688 223.71875 210.753906 222.203125 210.636719 220.640625 C 210.515625 219.082031 210.085938 217.609375 209.347656 216.230469 " fill-opacity="1" fill-rule="nonzero"/><path fill="#d18722" d="M 173.460938 225.238281 C 173.976562 223.796875 174.183594 222.308594 174.085938 220.78125 C 173.984375 219.25 173.585938 217.804688 172.882812 216.441406 C 175.21875 217.585938 176.882812 219.796875 176.882812 222.503906 C 176.882812 225.332031 174.792969 226.125 173.460938 225.246094 " fill-opacity="1" fill-rule="nonzero"/><path fill="#d18722" d="M 203.484375 224.835938 C 201.714844 220.234375 204.113281 216.617188 204.910156 215.597656 L 206.667969 215.574219 C 207.457031 216.578125 209.933594 220.265625 208.0625 224.953125 C 207.726562 225.191406 207.359375 225.371094 206.964844 225.488281 C 206.570312 225.609375 206.167969 225.664062 205.753906 225.652344 C 205.339844 225.640625 204.941406 225.566406 204.554688 225.425781 C 204.164062 225.285156 203.808594 225.089844 203.484375 224.835938 " fill-opacity="1" fill-rule="nonzero"/><path fill="#d18722" d="M 152.726562 219.230469 C 153.984375 219.144531 153.867188 217.214844 152.597656 217.304688 C 151.597656 217.363281 150.617188 217.542969 149.65625 217.847656 C 141.011719 203.003906 148.714844 199.402344 151.769531 198.589844 C 151.738281 205.800781 153.59375 214.417969 159.253906 224.019531 C 147.683594 232.695312 142.007812 219.980469 152.726562 219.230469 " fill-opacity="1" fill-rule="nonzero"/><path fill="#d18722" d="M 222.433594 217.304688 C 221.179688 217.21875 221.035156 219.140625 222.304688 219.230469 C 233.007812 219.964844 227.359375 232.707031 215.777344 224.019531 C 221.4375 214.417969 223.289062 205.789062 223.257812 198.589844 C 226.300781 199.402344 234.019531 202.992188 225.371094 217.847656 C 224.414062 217.546875 223.4375 217.363281 222.433594 217.304688 " fill-opacity="1" fill-rule="nonzero"/><path fill="#f5a42d" d="M 196.226562 222.84375 C 191.160156 224.925781 183.871094 224.925781 178.808594 222.84375 C 178.808594 222.726562 178.808594 222.609375 178.808594 222.488281 C 178.820312 220.597656 178.242188 218.902344 177.082031 217.40625 C 174.882812 208.742188 178.175781 202.636719 178.183594 202.636719 C 178.769531 201.511719 177.0625 200.621094 176.472656 201.742188 C 176.472656 201.761719 173.511719 207.265625 174.6875 215.257812 C 170.875 212.835938 165.839844 212.996094 162.304688 216.199219 C 160.921875 217.425781 160.023438 218.941406 159.601562 220.738281 C 154.929688 211.941406 153.515625 204.101562 153.710938 197.582031 C 153.71875 197.511719 153.71875 197.441406 153.710938 197.375 C 154.085938 186.636719 158.773438 179.457031 160.257812 177.4375 C 176.390625 184.554688 198.601562 184.507812 214.761719 177.4375 C 216.238281 179.441406 220.933594 186.628906 221.308594 197.378906 C 221.300781 197.449219 221.300781 197.519531 221.308594 197.585938 C 221.5 204.121094 220.089844 211.960938 215.402344 220.738281 C 214.984375 218.941406 214.082031 217.425781 212.699219 216.199219 C 209.167969 212.996094 204.132812 212.835938 200.320312 215.257812 C 201.492188 207.273438 198.542969 201.769531 198.53125 201.742188 C 197.945312 200.621094 196.238281 201.511719 196.824219 202.636719 C 196.824219 202.652344 200.105469 208.75 197.925781 217.40625 C 196.765625 218.902344 196.1875 220.597656 196.199219 222.488281 C 196.199219 222.609375 196.199219 222.726562 196.199219 222.84375 " fill-opacity="1" fill-rule="nonzero"/><path fill="#d18722" d="M 220.90625 192.953125 C 221.125 194.410156 221.261719 195.878906 221.3125 197.351562 C 221.308594 197.421875 221.308594 197.488281 221.3125 197.558594 C 221.503906 204.09375 220.097656 211.933594 215.410156 220.710938 C 214.992188 218.910156 214.089844 217.398438 212.707031 216.171875 C 209.175781 212.964844 204.140625 212.804688 200.328125 215.230469 C 200.457031 214.347656 200.535156 213.492188 200.574219 212.675781 C 206.507812 208.199219 222.128906 214.605469 220.894531 192.941406 " fill-opacity="1" fill-rule="nonzero"/><path fill="#d18722" d="M 158.574219 180.035156 C 159.085938 179.132812 159.652344 178.261719 160.261719 177.425781 C 176.398438 184.542969 198.609375 184.492188 214.765625 177.425781 C 215.378906 178.265625 215.945312 179.136719 216.457031 180.042969 C 200.070312 188.609375 174.96875 188.609375 158.574219 180.042969 " fill-opacity="1" fill-rule="nonzero"/><path fill="#ffffff" d="M 176.542969 214.511719 C 175.621094 207.414062 178.183594 202.640625 178.195312 202.625 C 178.777344 201.5 177.070312 200.609375 176.484375 201.734375 C 169.683594 194.269531 169.28125 181.015625 169.269531 180.515625 C 180.878906 183.496094 194.144531 183.476562 205.753906 180.5 C 205.753906 180.5 205.472656 194.121094 198.546875 201.734375 C 197.960938 200.609375 196.253906 201.503906 196.839844 202.625 C 196.839844 202.640625 199.042969 206.742188 198.640625 212.996094 C 198.605469 213.042969 189.699219 224.757812 176.542969 214.507812 " fill-opacity="1" fill-rule="nonzero"/><path fill="#cccccc" d="M 171.46875 181.039062 L 171.894531 181.128906 M 169.585938 184.222656 C 169.316406 182.105469 169.273438 180.675781 169.273438 180.515625 L 169.328125 180.53125 L 170.273438 180.757812 L 170.472656 180.804688 L 170.933594 180.914062 L 171.484375 181.039062 L 171.914062 181.128906 L 172.167969 181.1875 L 173.023438 181.359375 L 173.160156 181.386719 L 173.636719 181.480469 L 173.832031 181.515625 C 174.148438 181.570312 174.429688 181.625 174.734375 181.675781 L 174.855469 181.695312 L 175.359375 181.777344 L 175.507812 181.804688 C 175.824219 181.851562 176.136719 181.902344 176.453125 181.949219 L 176.5625 181.964844 L 177.074219 182.039062 L 177.214844 182.058594 L 178.160156 182.175781 L 178.3125 182.195312 L 178.808594 182.253906 L 178.984375 182.273438 L 179.855469 182.367188 L 180.074219 182.386719 C 180.597656 182.4375 181.121094 182.480469 181.648438 182.523438 L 181.796875 182.523438 C 182.328125 182.5625 182.851562 182.597656 183.371094 182.625 L 183.5625 182.625 C 184.09375 182.652344 184.625 182.671875 185.15625 182.6875 L 185.285156 182.6875 C 185.621094 182.6875 185.957031 182.707031 186.292969 182.710938 L 188.753906 182.710938 L 189.808594 182.6875 L 189.890625 182.6875 C 190.433594 182.671875 190.980469 182.648438 191.523438 182.617188 L 191.664062 182.617188 C 192.210938 182.589844 192.753906 182.550781 193.300781 182.511719 L 193.394531 182.511719 C 193.945312 182.46875 194.5 182.417969 195.050781 182.367188 L 195.117188 182.367188 C 195.679688 182.308594 196.234375 182.246094 196.789062 182.179688 L 196.828125 182.179688 C 197.769531 182.0625 198.703125 181.929688 199.628906 181.78125 L 199.664062 181.78125 C 200.214844 181.691406 200.761719 181.59375 201.304688 181.496094 L 201.375 181.480469 C 201.90625 181.382812 202.433594 181.273438 202.945312 181.164062 L 203.0625 181.140625 C 203.578125 181.03125 204.089844 180.914062 204.597656 180.792969 L 204.75 180.757812 L 205.757812 180.507812 C 205.757812 180.507812 205.726562 181.980469 205.445312 184.234375 C 194.085938 187.210938 180.941406 187.210938 169.585938 184.222656 Z M 169.585938 184.222656 " fill-opacity="1" fill-rule="nonzero"/><path fill="#d18722" d="M 198.21875 223.40625 C 198.214844 223.339844 198.203125 223.28125 198.1875 223.21875 C 197.871094 221.003906 199.160156 217.835938 202.179688 216.359375 C 201.46875 217.722656 201.054688 219.175781 200.945312 220.714844 C 200.835938 222.253906 201.039062 223.75 201.550781 225.203125 C 200.132812 226.203125 198.546875 225.160156 198.207031 223.40625 " fill-opacity="1" fill-rule="nonzero"/><path fill="#d18722" d="M 166.96875 224.953125 C 165.082031 220.238281 167.597656 216.558594 168.371094 215.570312 C 168.960938 215.523438 169.546875 215.535156 170.132812 215.609375 C 170.9375 216.648438 173.3125 220.253906 171.550781 224.835938 C 171.222656 225.089844 170.867188 225.285156 170.480469 225.425781 C 170.089844 225.566406 169.691406 225.640625 169.277344 225.652344 C 168.867188 225.664062 168.464844 225.609375 168.066406 225.488281 C 167.671875 225.371094 167.308594 225.191406 166.96875 224.953125 " fill-opacity="1" fill-rule="nonzero"/><path fill="#d18722" d="M 165.6875 216.253906 C 164.953125 217.628906 164.527344 219.09375 164.410156 220.648438 C 164.292969 222.203125 164.496094 223.714844 165.015625 225.1875 C 160.714844 227.820312 159.371094 219.09375 165.6875 216.253906 " fill-opacity="1" fill-rule="nonzero"/><path fill="#f5a42d" d="M 167.3125 103.84375 C 166.191406 104.4375 167.09375 106.144531 168.214844 105.550781 C 178.902344 99.894531 196.140625 99.894531 206.820312 105.550781 C 207.9375 106.144531 208.84375 104.441406 207.71875 103.84375 C 205.421875 102.652344 203.023438 101.722656 200.523438 101.058594 C 203.035156 97.859375 211.542969 88.355469 224.917969 86.875 C 220.230469 90.5625 211.980469 99.292969 216.449219 112.695312 C 216.484375 112.8125 216.542969 112.917969 216.621094 113.011719 C 229.335938 128.339844 237.230469 146.105469 230.574219 160.5625 C 218.136719 187.570312 156.902344 187.570312 144.453125 160.5625 C 137.796875 146.105469 145.710938 128.339844 158.40625 113.011719 C 158.484375 112.917969 158.542969 112.8125 158.582031 112.695312 C 163.046875 99.292969 154.808594 90.5625 150.109375 86.875 C 163.476562 88.351562 171.984375 97.851562 174.5 101.054688 C 172 101.71875 169.601562 102.648438 167.304688 103.84375 " fill-opacity="1" fill-rule="nonzero"/><path fill="#ffffff" d="M 232.984375 149.332031 C 233 153.25 232.195312 156.992188 230.570312 160.558594 C 218.132812 187.566406 156.898438 187.566406 144.449219 160.558594 C 142.824219 156.992188 142.019531 153.25 142.035156 149.332031 C 144.984375 147.933594 148.820312 147.085938 153.015625 147.085938 C 159.019531 147.085938 164.289062 148.816406 167.261719 151.425781 C 170.890625 146.4375 178.59375 140.605469 187.503906 140.605469 C 196.414062 140.605469 204.117188 146.4375 207.746094 151.425781 C 210.71875 148.816406 215.984375 147.085938 221.988281 147.085938 C 226.1875 147.085938 230.027344 147.933594 232.96875 149.332031 " fill-opacity="1" fill-rule="nonzero"/><path fill="#cccccc" d="M 232.984375 149.332031 C 233 153.25 232.195312 156.992188 230.570312 160.558594 C 218.132812 187.566406 156.898438 187.566406 144.449219 160.558594 C 142.824219 156.992188 142.019531 153.25 142.035156 149.332031 L 142.28125 149.21875 C 142.621094 151.847656 143.34375 154.371094 144.449219 156.78125 C 156.886719 183.792969 218.121094 183.792969 230.570312 156.78125 C 231.675781 154.371094 232.398438 151.851562 232.738281 149.21875 L 232.984375 149.332031 " fill-opacity="1" fill-rule="nonzero"/><path fill="#37160c" d="M 170.714844 158.765625 C 170.175781 157.617188 168.429688 158.453125 168.972656 159.589844 C 168.972656 159.609375 170.796875 163.597656 174.628906 165.359375 C 175.296875 167.667969 178.503906 176.617188 187.496094 176.792969 L 187.621094 176.792969 C 196.605469 176.507812 199.734375 167.695312 200.410156 165.363281 C 204.230469 163.605469 206.050781 159.613281 206.066406 159.59375 C 206.605469 158.445312 204.863281 157.621094 204.320312 158.769531 C 204.320312 158.800781 199.664062 169 189.207031 161.164062 L 189.390625 159.277344 C 198.820312 158.765625 202.242188 147.382812 191.105469 144.640625 C 188.320312 143.953125 186.539062 143.984375 183.753906 144.71875 C 172.722656 147.636719 176.425781 158.777344 185.65625 159.277344 L 185.84375 161.164062 C 175.386719 169 170.757812 158.800781 170.730469 158.769531 " fill-opacity="1" fill-rule="nonzero"/><path fill="#ff7c6c" d="M 187.515625 174.867188 C 183.183594 174.742188 180.429688 172.25 178.738281 169.722656 C 180.207031 167.679688 183.585938 166.261719 187.515625 166.261719 C 191.445312 166.261719 194.824219 167.691406 196.296875 169.722656 C 194.605469 172.234375 191.847656 174.75 187.515625 174.867188 " fill-opacity="1" fill-rule="nonzero"/><path fill="#37160c" d="M 173.945312 125.882812 C 167.660156 118.226562 156.6875 123.566406 156.6875 134.320312 C 156.6875 145.074219 167.648438 150.433594 173.945312 142.761719 C 177.796875 138.078125 177.796875 130.566406 173.945312 125.882812 " fill-opacity="1" fill-rule="nonzero"/><path fill="#37160c" d="M 166.761719 124.21875 C 173.992188 124.21875 177.671875 135.199219 172.457031 141.539062 C 167.324219 147.78125 158.628906 143.257812 158.628906 134.3125 C 158.628906 129.28125 161.863281 124.210938 166.769531 124.210938 " fill-opacity="1" fill-rule="nonzero"/><path fill="#000000" d="M 208.273438 124.21875 C 215.5 124.21875 219.179688 135.199219 213.96875 141.539062 C 208.832031 147.78125 200.136719 143.257812 200.136719 134.3125 C 200.136719 129.28125 203.375 124.210938 208.277344 124.210938 " fill-opacity="1" fill-rule="nonzero"/><path fill="#37160c" d="M 215.453125 125.882812 C 209.167969 118.226562 198.195312 123.566406 198.195312 134.320312 C 198.195312 145.074219 209.160156 150.417969 215.453125 142.761719 C 219.308594 138.078125 219.308594 130.566406 215.453125 125.882812 " fill-opacity="1" fill-rule="nonzero"/><path fill="#ff7c6c" d="M 145.09375 129.746094 C 136.984375 104.15625 144.859375 90.144531 146.980469 87 C 150.039062 88.972656 161.503906 97.484375 156.804688 111.917969 C 151.683594 118.113281 147.808594 124.082031 145.085938 129.746094 " fill-opacity="1" fill-rule="nonzero"/><path fill="#f75c4c" d="M 142.273438 117.921875 C 142.914062 121.933594 143.859375 125.878906 145.101562 129.746094 C 147.824219 124.089844 151.703125 118.117188 156.820312 111.917969 C 161.519531 97.484375 150.058594 88.972656 146.996094 87 C 146.996094 87 158.242188 104.101562 142.28125 117.921875 " fill-opacity="1" fill-rule="nonzero"/><path fill="#d18722" d="M 154.125 192.953125 C 153.90625 194.410156 153.769531 195.878906 153.71875 197.351562 C 153.726562 197.421875 153.726562 197.488281 153.71875 197.558594 C 153.523438 204.09375 154.933594 211.933594 159.617188 220.710938 C 160.039062 218.910156 160.9375 217.398438 162.320312 216.171875 C 165.855469 212.964844 170.890625 212.804688 174.703125 215.230469 C 174.578125 214.382812 174.496094 213.53125 174.457031 212.675781 C 168.515625 208.207031 152.894531 214.617188 154.125 192.953125 " fill-opacity="1" fill-rule="nonzero"/><path fill="#ffffff" d="M 208.269531 125.566406 C 206.167969 125.566406 204.464844 127.667969 204.464844 130.257812 C 204.464844 132.847656 206.167969 134.945312 208.269531 134.945312 C 210.371094 134.945312 212.078125 132.835938 212.078125 130.257812 C 212.078125 127.679688 210.375 125.566406 208.269531 125.566406 " fill-opacity="1" fill-rule="nonzero"/><path fill="#ffffff" d="M 166.761719 125.566406 C 164.660156 125.566406 162.953125 127.667969 162.953125 130.257812 C 162.953125 132.847656 164.660156 134.945312 166.761719 134.945312 C 168.863281 134.945312 170.570312 132.835938 170.570312 130.257812 C 170.570312 127.679688 168.863281 125.566406 166.761719 125.566406 " fill-opacity="1" fill-rule="nonzero"/><path fill="#cccccc" d="M 198.640625 213 C 198.605469 213.046875 189.699219 224.757812 176.539062 214.511719 C 176.667969 215.488281 176.851562 216.453125 177.09375 217.40625 C 178.253906 218.902344 178.828125 220.597656 178.820312 222.488281 C 178.820312 222.609375 178.820312 222.726562 178.820312 222.84375 C 183.882812 224.925781 191.171875 224.925781 196.234375 222.84375 C 196.234375 222.726562 196.234375 222.609375 196.234375 222.488281 C 196.222656 220.597656 196.800781 218.902344 197.960938 217.40625 C 198.324219 215.960938 198.558594 214.496094 198.65625 213.007812 " fill-opacity="1" fill-rule="nonzero"/><g fill="#37160c" fill-opacity="1"><g transform="translate(86.917191, 271.24803)"><g><path d="M 22.1875 1.59375 L 22.546875 -10.046875 C 22.628906 -12.617188 22.867188 -15.039062 23.265625 -17.3125 C 22.566406 -16.457031 21.6875 -15.179688 20.625 -13.484375 C 17.457031 -8.378906 14.046875 -3.59375 10.390625 0.875 C 10.117188 -0.726562 9.898438 -2.601562 9.734375 -4.75 C 9.578125 -6.894531 9.5 -8.773438 9.5 -10.390625 C 9.5 -12.660156 9.710938 -14.472656 10.140625 -15.828125 C 10.566406 -17.191406 11.378906 -18.675781 12.578125 -20.28125 C 10.304688 -20.03125 8.503906 -19.316406 7.171875 -18.140625 C 5.847656 -16.960938 5.1875 -15.75 5.1875 -14.5 C 5.1875 -14.050781 5.3125 -13.585938 5.5625 -13.109375 C 5.863281 -12.546875 6.015625 -12.171875 6.015625 -11.984375 C 6.015625 -11.671875 5.914062 -11.410156 5.71875 -11.203125 C 5.519531 -10.992188 5.273438 -10.890625 4.984375 -10.890625 C 4.597656 -10.890625 4.285156 -11.066406 4.046875 -11.421875 C 3.722656 -11.878906 3.5625 -12.46875 3.5625 -13.1875 C 3.5625 -14.28125 3.875 -15.398438 4.5 -16.546875 C 5.132812 -17.691406 5.972656 -18.632812 7.015625 -19.375 C 8.066406 -20.113281 9.265625 -20.65625 10.609375 -21 C 11.335938 -21.175781 12.570312 -21.359375 14.3125 -21.546875 C 14.894531 -21.617188 15.476562 -21.695312 16.0625 -21.78125 C 13.445312 -18.125 12.140625 -14.429688 12.140625 -10.703125 C 12.140625 -9.523438 12.226562 -7.191406 12.40625 -3.703125 C 13.125 -4.554688 13.769531 -5.378906 14.34375 -6.171875 C 14.738281 -6.734375 15.773438 -8.269531 17.453125 -10.78125 C 20.148438 -14.875 22.164062 -17.757812 23.5 -19.4375 C 24.4375 -20.59375 25.5 -21.671875 26.6875 -22.671875 C 25.53125 -18.128906 24.953125 -11.609375 24.953125 -3.109375 L 29.484375 -8.71875 C 30.703125 -10.238281 31.929688 -12.007812 33.171875 -14.03125 C 34.421875 -16.050781 35.242188 -17.660156 35.640625 -18.859375 C 35.898438 -19.640625 36.03125 -20.378906 36.03125 -21.078125 C 36.03125 -21.765625 35.875 -22.488281 35.5625 -23.25 C 35.363281 -23.726562 35.265625 -24.078125 35.265625 -24.296875 C 35.265625 -24.617188 35.378906 -24.890625 35.609375 -25.109375 C 35.847656 -25.335938 36.148438 -25.453125 36.515625 -25.453125 C 36.972656 -25.453125 37.332031 -25.25 37.59375 -24.84375 C 37.976562 -24.289062 38.171875 -23.554688 38.171875 -22.640625 C 38.171875 -21.421875 37.75 -19.816406 36.90625 -17.828125 C 36.070312 -15.835938 34.21875 -12.9375 31.34375 -9.125 C 27.632812 -4.25 24.582031 -0.675781 22.1875 1.59375 Z M 22.1875 1.59375 "/></g></g></g><g fill="#37160c" fill-opacity="1"><g transform="translate(118.35941, 271.24803)"><g><path d="M 15.46875 -15.5 L 16.65625 -15.75 L 15.296875 -11.1875 C 14.753906 -9.363281 14.242188 -7.265625 13.765625 -4.890625 C 13.503906 -3.609375 13.375 -2.78125 13.375 -2.40625 C 13.375 -2.03125 13.523438 -1.84375 13.828125 -1.84375 C 14.015625 -1.84375 14.320312 -1.96875 14.75 -2.21875 C 15.488281 -2.664062 16.203125 -3.222656 16.890625 -3.890625 L 17.46875 -3.1875 C 16.09375 -1.925781 15.210938 -1.164062 14.828125 -0.90625 C 14.054688 -0.375 13.320312 0.015625 12.625 0.265625 C 12.164062 0.441406 11.722656 0.53125 11.296875 0.53125 C 10.984375 0.53125 10.75 0.457031 10.59375 0.3125 C 10.4375 0.164062 10.359375 -0.046875 10.359375 -0.328125 C 10.359375 -0.503906 10.40625 -0.75 10.5 -1.0625 L 11.21875 -3.515625 C 10.1875 -2.273438 8.953125 -1.210938 7.515625 -0.328125 C 6.640625 0.222656 5.832031 0.5 5.09375 0.5 C 4.394531 0.5 3.859375 0.253906 3.484375 -0.234375 C 2.984375 -0.898438 2.734375 -1.769531 2.734375 -2.84375 C 2.734375 -4.113281 3.070312 -5.53125 3.75 -7.09375 C 4.425781 -8.664062 5.335938 -10.085938 6.484375 -11.359375 C 7.628906 -12.640625 8.832031 -13.582031 10.09375 -14.1875 C 11.070312 -14.644531 12.328125 -14.875 13.859375 -14.875 C 14.242188 -14.875 14.632812 -14.847656 15.03125 -14.796875 Z M 13.21875 -12.734375 C 12.570312 -12.867188 12.023438 -12.9375 11.578125 -12.9375 C 10.492188 -12.9375 9.546875 -12.632812 8.734375 -12.03125 C 7.929688 -11.4375 7.179688 -10.363281 6.484375 -8.8125 C 5.796875 -7.269531 5.453125 -5.726562 5.453125 -4.1875 C 5.453125 -3.375 5.585938 -2.785156 5.859375 -2.421875 C 6.140625 -2.054688 6.503906 -1.875 6.953125 -1.875 C 7.785156 -1.875 8.675781 -2.320312 9.625 -3.21875 C 10.582031 -4.125 11.28125 -5.414062 11.71875 -7.09375 Z M 13.21875 -12.734375 "/></g></g></g><g fill="#37160c" fill-opacity="1"><g transform="translate(132.784873, 271.24803)"><g><path d="M 3.6875 -10.96875 L 3.078125 -11.59375 C 4.617188 -13.0625 5.84375 -14.035156 6.75 -14.515625 C 7.664062 -15.003906 8.453125 -15.25 9.109375 -15.25 C 9.359375 -15.25 9.554688 -15.191406 9.703125 -15.078125 C 9.847656 -14.972656 9.921875 -14.847656 9.921875 -14.703125 C 9.921875 -14.597656 9.890625 -14.40625 9.828125 -14.125 L 9.015625 -10.5 C 10.242188 -11.851562 11.785156 -13.125 13.640625 -14.3125 C 14.628906 -14.925781 15.441406 -15.234375 16.078125 -15.234375 C 16.546875 -15.234375 16.910156 -15.082031 17.171875 -14.78125 C 17.441406 -14.476562 17.578125 -14.046875 17.578125 -13.484375 C 17.578125 -13.109375 17.523438 -12.6875 17.421875 -12.21875 C 17.222656 -11.425781 16.71875 -9.71875 15.90625 -7.09375 C 15.132812 -4.644531 14.75 -3.015625 14.75 -2.203125 C 14.75 -1.960938 14.78125 -1.78125 14.84375 -1.65625 C 14.914062 -1.539062 15.019531 -1.484375 15.15625 -1.484375 C 15.507812 -1.484375 16.054688 -1.820312 16.796875 -2.5 C 17.328125 -2.976562 17.859375 -3.421875 18.390625 -3.828125 L 18.84375 -3.1875 C 17.738281 -1.957031 16.585938 -0.96875 15.390625 -0.21875 C 14.628906 0.257812 14.003906 0.5 13.515625 0.5 C 13.054688 0.5 12.695312 0.332031 12.4375 0 C 12.1875 -0.320312 12.0625 -0.859375 12.0625 -1.609375 C 12.0625 -2.679688 12.734375 -5.347656 14.078125 -9.609375 C 14.484375 -11.128906 14.6875 -12.015625 14.6875 -12.265625 C 14.6875 -12.640625 14.460938 -12.828125 14.015625 -12.828125 C 13.535156 -12.828125 12.914062 -12.570312 12.15625 -12.0625 C 11.019531 -11.320312 10.078125 -10.445312 9.328125 -9.4375 C 8.835938 -8.78125 8.429688 -7.742188 8.109375 -6.328125 L 6.65625 -0.015625 L 3.953125 -0.015625 C 4.460938 -1.828125 4.90625 -3.554688 5.28125 -5.203125 L 6.890625 -12.0625 C 6.941406 -12.34375 6.96875 -12.546875 6.96875 -12.671875 C 6.96875 -12.992188 6.847656 -13.15625 6.609375 -13.15625 C 6.421875 -13.15625 6.144531 -13.023438 5.78125 -12.765625 C 5.03125 -12.273438 4.332031 -11.675781 3.6875 -10.96875 Z M 3.6875 -10.96875 "/></g></g></g><g fill="#37160c" fill-opacity="1"><g transform="translate(148.691627, 271.24803)"><g><path d="M 17.0625 -3.734375 L 17.5625 -3.046875 C 15.945312 -1.691406 14.75 -0.789062 13.96875 -0.34375 C 12.882812 0.269531 12.03125 0.578125 11.40625 0.578125 C 11.113281 0.578125 10.875 0.492188 10.6875 0.328125 C 10.507812 0.171875 10.421875 -0.0078125 10.421875 -0.21875 C 10.421875 -0.425781 10.488281 -0.765625 10.625 -1.234375 L 11.25 -3.4375 C 9.8125 -1.882812 8.609375 -0.828125 7.640625 -0.265625 C 6.679688 0.285156 5.816406 0.5625 5.046875 0.5625 C 4.398438 0.5625 3.859375 0.28125 3.421875 -0.28125 C 2.992188 -0.84375 2.78125 -1.664062 2.78125 -2.75 C 2.78125 -4.457031 3.367188 -6.421875 4.546875 -8.640625 C 5.722656 -10.867188 7.03125 -12.515625 8.46875 -13.578125 C 9.90625 -14.640625 11.21875 -15.171875 12.40625 -15.171875 C 12.675781 -15.171875 13.078125 -15.128906 13.609375 -15.046875 C 14.171875 -17.398438 14.707031 -19.113281 15.21875 -20.1875 C 15.738281 -21.269531 16.410156 -22.203125 17.234375 -22.984375 C 18.054688 -23.765625 18.992188 -24.367188 20.046875 -24.796875 C 21.097656 -25.222656 22.082031 -25.4375 23 -25.4375 C 23.476562 -25.4375 23.863281 -25.304688 24.15625 -25.046875 C 24.445312 -24.796875 24.59375 -24.476562 24.59375 -24.09375 C 24.59375 -23.726562 24.457031 -23.425781 24.1875 -23.1875 C 23.925781 -22.957031 23.566406 -22.84375 23.109375 -22.84375 C 22.804688 -22.84375 22.242188 -22.898438 21.421875 -23.015625 C 20.609375 -23.140625 20.050781 -23.203125 19.75 -23.203125 C 19.320312 -23.203125 18.945312 -23.070312 18.625 -22.8125 C 18.3125 -22.550781 18.007812 -21.992188 17.71875 -21.140625 C 17.53125 -20.597656 17.09375 -18.867188 16.40625 -15.953125 L 13.84375 -5.046875 C 13.539062 -3.753906 13.390625 -2.894531 13.390625 -2.46875 C 13.390625 -2.007812 13.5625 -1.78125 13.90625 -1.78125 C 14.125 -1.78125 14.378906 -1.863281 14.671875 -2.03125 C 15.078125 -2.25 15.875 -2.816406 17.0625 -3.734375 Z M 13.21875 -13.0625 C 12.257812 -13.28125 11.582031 -13.390625 11.1875 -13.390625 C 10.375 -13.390625 9.582031 -13.070312 8.8125 -12.4375 C 8.039062 -11.800781 7.296875 -10.570312 6.578125 -8.75 C 5.867188 -6.9375 5.515625 -5.359375 5.515625 -4.015625 C 5.515625 -3.398438 5.675781 -2.894531 6 -2.5 C 6.332031 -2.113281 6.710938 -1.921875 7.140625 -1.921875 C 7.640625 -1.921875 8.21875 -2.140625 8.875 -2.578125 C 9.800781 -3.242188 10.535156 -4.050781 11.078125 -5 C 11.398438 -5.601562 11.835938 -7.082031 12.390625 -9.4375 Z M 13.21875 -13.0625 "/></g></g></g><g fill="#37160c" fill-opacity="1"><g transform="translate(163.857737, 271.24803)"><g><path d="M 12.609375 -4.53125 L 13.203125 -3.734375 C 10.253906 -0.929688 7.726562 0.46875 5.625 0.46875 C 4.769531 0.46875 4.113281 0.179688 3.65625 -0.390625 C 3.207031 -0.972656 2.984375 -1.90625 2.984375 -3.1875 C 2.984375 -5.757812 3.765625 -8.320312 5.328125 -10.875 C 7.085938 -13.78125 9.191406 -15.234375 11.640625 -15.234375 C 12.492188 -15.234375 13.144531 -15.019531 13.59375 -14.59375 C 14.039062 -14.164062 14.265625 -13.578125 14.265625 -12.828125 C 14.265625 -12.046875 13.992188 -11.273438 13.453125 -10.515625 C 12.910156 -9.753906 11.941406 -8.960938 10.546875 -8.140625 C 9.847656 -7.742188 8.359375 -7.03125 6.078125 -6 C 5.960938 -5.34375 5.90625 -4.722656 5.90625 -4.140625 C 5.90625 -3.285156 6.039062 -2.6875 6.3125 -2.34375 C 6.582031 -2.007812 6.976562 -1.84375 7.5 -1.84375 C 7.988281 -1.84375 8.53125 -1.984375 9.125 -2.265625 C 9.914062 -2.628906 11.078125 -3.382812 12.609375 -4.53125 Z M 6.28125 -7.15625 C 8.226562 -8.019531 9.6875 -8.953125 10.65625 -9.953125 C 11.320312 -10.648438 11.65625 -11.34375 11.65625 -12.03125 C 11.65625 -12.550781 11.519531 -12.960938 11.25 -13.265625 C 10.976562 -13.578125 10.625 -13.734375 10.1875 -13.734375 C 9.738281 -13.734375 9.304688 -13.5625 8.890625 -13.21875 C 8.328125 -12.78125 7.851562 -12.109375 7.46875 -11.203125 C 6.90625 -9.878906 6.507812 -8.53125 6.28125 -7.15625 Z M 6.28125 -7.15625 "/></g></g></g><g fill="#37160c" fill-opacity="1"><g transform="translate(175.320619, 271.24803)"><g><path d="M 6.484375 0 L 3.796875 0 L 5.0625 -4.859375 C 5.675781 -7.242188 6.210938 -9.507812 6.671875 -11.65625 C 6.773438 -12.1875 6.828125 -12.515625 6.828125 -12.640625 C 6.828125 -12.929688 6.695312 -13.078125 6.4375 -13.078125 C 6.25 -13.078125 5.96875 -12.953125 5.59375 -12.703125 C 5.226562 -12.460938 4.554688 -11.851562 3.578125 -10.875 L 3.015625 -11.515625 C 4.171875 -12.753906 5.320312 -13.679688 6.46875 -14.296875 C 7.625 -14.921875 8.507812 -15.234375 9.125 -15.234375 C 9.34375 -15.234375 9.515625 -15.179688 9.640625 -15.078125 C 9.765625 -14.972656 9.828125 -14.84375 9.828125 -14.6875 C 9.828125 -14.53125 9.75 -14.113281 9.59375 -13.4375 L 8.8125 -10.203125 C 10.03125 -12.117188 11.40625 -13.757812 12.9375 -15.125 C 13.664062 -15.769531 14.28125 -16.09375 14.78125 -16.09375 C 15.144531 -16.09375 15.445312 -15.972656 15.6875 -15.734375 C 15.925781 -15.503906 16.046875 -15.234375 16.046875 -14.921875 C 16.046875 -14.597656 15.925781 -14.320312 15.6875 -14.09375 C 15.457031 -13.863281 14.867188 -13.59375 13.921875 -13.28125 C 13.035156 -12.976562 12.3125 -12.613281 11.75 -12.1875 C 11.1875 -11.769531 10.570312 -11.128906 9.90625 -10.265625 C 9.238281 -9.398438 8.769531 -8.644531 8.5 -8 C 8.238281 -7.351562 7.835938 -5.851562 7.296875 -3.5 Z M 6.484375 0 "/></g></g></g><g fill="#37160c" fill-opacity="1"><g transform="translate(185.302213, 271.24803)"><g/></g></g><g fill="#37160c" fill-opacity="1"><g transform="translate(192.321229, 271.24803)"><g><path d="M 22.1875 1.59375 L 22.546875 -10.046875 C 22.628906 -12.617188 22.867188 -15.039062 23.265625 -17.3125 C 22.566406 -16.457031 21.6875 -15.179688 20.625 -13.484375 C 17.457031 -8.378906 14.046875 -3.59375 10.390625 0.875 C 10.117188 -0.726562 9.898438 -2.601562 9.734375 -4.75 C 9.578125 -6.894531 9.5 -8.773438 9.5 -10.390625 C 9.5 -12.660156 9.710938 -14.472656 10.140625 -15.828125 C 10.566406 -17.191406 11.378906 -18.675781 12.578125 -20.28125 C 10.304688 -20.03125 8.503906 -19.316406 7.171875 -18.140625 C 5.847656 -16.960938 5.1875 -15.75 5.1875 -14.5 C 5.1875 -14.050781 5.3125 -13.585938 5.5625 -13.109375 C 5.863281 -12.546875 6.015625 -12.171875 6.015625 -11.984375 C 6.015625 -11.671875 5.914062 -11.410156 5.71875 -11.203125 C 5.519531 -10.992188 5.273438 -10.890625 4.984375 -10.890625 C 4.597656 -10.890625 4.285156 -11.066406 4.046875 -11.421875 C 3.722656 -11.878906 3.5625 -12.46875 3.5625 -13.1875 C 3.5625 -14.28125 3.875 -15.398438 4.5 -16.546875 C 5.132812 -17.691406 5.972656 -18.632812 7.015625 -19.375 C 8.066406 -20.113281 9.265625 -20.65625 10.609375 -21 C 11.335938 -21.175781 12.570312 -21.359375 14.3125 -21.546875 C 14.894531 -21.617188 15.476562 -21.695312 16.0625 -21.78125 C 13.445312 -18.125 12.140625 -14.429688 12.140625 -10.703125 C 12.140625 -9.523438 12.226562 -7.191406 12.40625 -3.703125 C 13.125 -4.554688 13.769531 -5.378906 14.34375 -6.171875 C 14.738281 -6.734375 15.773438 -8.269531 17.453125 -10.78125 C 20.148438 -14.875 22.164062 -17.757812 23.5 -19.4375 C 24.4375 -20.59375 25.5 -21.671875 26.6875 -22.671875 C 25.53125 -18.128906 24.953125 -11.609375 24.953125 -3.109375 L 29.484375 -8.71875 C 30.703125 -10.238281 31.929688 -12.007812 33.171875 -14.03125 C 34.421875 -16.050781 35.242188 -17.660156 35.640625 -18.859375 C 35.898438 -19.640625 36.03125 -20.378906 36.03125 -21.078125 C 36.03125 -21.765625 35.875 -22.488281 35.5625 -23.25 C 35.363281 -23.726562 35.265625 -24.078125 35.265625 -24.296875 C 35.265625 -24.617188 35.378906 -24.890625 35.609375 -25.109375 C 35.847656 -25.335938 36.148438 -25.453125 36.515625 -25.453125 C 36.972656 -25.453125 37.332031 -25.25 37.59375 -24.84375 C 37.976562 -24.289062 38.171875 -23.554688 38.171875 -22.640625 C 38.171875 -21.421875 37.75 -19.816406 36.90625 -17.828125 C 36.070312 -15.835938 34.21875 -12.9375 31.34375 -9.125 C 27.632812 -4.25 24.582031 -0.675781 22.1875 1.59375 Z M 22.1875 1.59375 "/></g></g></g><g fill="#37160c" fill-opacity="1"><g transform="translate(223.763445, 271.24803)"><g><path d="M 17.65625 -3.828125 L 18.125 -3.15625 C 17.007812 -1.925781 15.867188 -0.953125 14.703125 -0.234375 C 13.910156 0.253906 13.253906 0.5 12.734375 0.5 C 12.316406 0.5 11.976562 0.332031 11.71875 0 C 11.457031 -0.332031 11.328125 -0.859375 11.328125 -1.578125 C 11.328125 -2.054688 11.425781 -2.753906 11.625 -3.671875 C 11.820312 -4.597656 12.382812 -6.578125 13.3125 -9.609375 C 13.71875 -11.109375 13.921875 -11.984375 13.921875 -12.234375 C 13.921875 -12.640625 13.71875 -12.84375 13.3125 -12.84375 C 12.8125 -12.84375 12.179688 -12.59375 11.421875 -12.09375 C 10.359375 -11.382812 9.414062 -10.488281 8.59375 -9.40625 C 8.082031 -8.707031 7.671875 -7.675781 7.359375 -6.3125 L 5.90625 -0.015625 L 3.21875 -0.015625 C 3.789062 -2.128906 4.234375 -3.851562 4.546875 -5.1875 L 7.203125 -16.78125 C 7.691406 -18.914062 8.328125 -20.554688 9.109375 -21.703125 C 9.898438 -22.859375 10.929688 -23.773438 12.203125 -24.453125 C 13.472656 -25.140625 14.726562 -25.484375 15.96875 -25.484375 C 16.488281 -25.484375 16.898438 -25.359375 17.203125 -25.109375 C 17.503906 -24.859375 17.65625 -24.539062 17.65625 -24.15625 C 17.65625 -23.832031 17.503906 -23.546875 17.203125 -23.296875 C 16.910156 -23.046875 16.507812 -22.921875 16 -22.921875 C 15.71875 -22.921875 15.347656 -22.953125 14.890625 -23.015625 C 13.847656 -23.160156 13.128906 -23.234375 12.734375 -23.234375 C 12.179688 -23.234375 11.726562 -23.007812 11.375 -22.5625 C 11.03125 -22.113281 10.671875 -21.066406 10.296875 -19.421875 L 8.28125 -10.5 C 9.707031 -12 11.265625 -13.269531 12.953125 -14.3125 C 13.941406 -14.925781 14.738281 -15.234375 15.34375 -15.234375 C 15.8125 -15.234375 16.175781 -15.085938 16.4375 -14.796875 C 16.707031 -14.515625 16.84375 -14.125 16.84375 -13.625 C 16.84375 -13.21875 16.789062 -12.804688 16.6875 -12.390625 C 16.53125 -11.679688 16.164062 -10.394531 15.59375 -8.53125 C 14.8125 -5.945312 14.347656 -4.34375 14.203125 -3.71875 C 14.066406 -3.09375 14 -2.535156 14 -2.046875 C 14 -1.847656 14.03125 -1.703125 14.09375 -1.609375 C 14.164062 -1.515625 14.269531 -1.46875 14.40625 -1.46875 C 14.6875 -1.46875 15.226562 -1.8125 16.03125 -2.5 C 16.46875 -2.863281 17.007812 -3.304688 17.65625 -3.828125 Z M 17.65625 -3.828125 "/></g></g></g><g fill="#37160c" fill-opacity="1"><g transform="translate(238.929555, 271.24803)"><g><path d="M 10.84375 -22.96875 C 11.21875 -22.96875 11.523438 -22.84375 11.765625 -22.59375 C 12.003906 -22.34375 12.125 -22.023438 12.125 -21.640625 C 12.125 -21.109375 11.9375 -20.640625 11.5625 -20.234375 C 11.195312 -19.835938 10.785156 -19.640625 10.328125 -19.640625 C 9.972656 -19.640625 9.671875 -19.765625 9.421875 -20.015625 C 9.179688 -20.265625 9.0625 -20.597656 9.0625 -21.015625 C 9.0625 -21.554688 9.238281 -22.015625 9.59375 -22.390625 C 9.945312 -22.773438 10.363281 -22.96875 10.84375 -22.96875 Z M 3.71875 -11 L 2.921875 -11.609375 C 4.128906 -12.941406 5.226562 -13.882812 6.21875 -14.4375 C 7.21875 -15 8.066406 -15.28125 8.765625 -15.28125 C 9.148438 -15.28125 9.441406 -15.195312 9.640625 -15.03125 C 9.847656 -14.863281 9.953125 -14.632812 9.953125 -14.34375 C 9.953125 -14 9.5625 -12.519531 8.78125 -9.90625 C 7.5 -5.625 6.859375 -3.046875 6.859375 -2.171875 C 6.859375 -2.003906 6.898438 -1.863281 6.984375 -1.75 C 7.078125 -1.632812 7.171875 -1.578125 7.265625 -1.578125 C 7.648438 -1.578125 8.632812 -2.320312 10.21875 -3.8125 L 10.9375 -3.125 C 9.28125 -1.570312 8.070312 -0.578125 7.3125 -0.140625 C 6.550781 0.285156 5.929688 0.5 5.453125 0.5 C 5.035156 0.5 4.703125 0.363281 4.453125 0.09375 C 4.203125 -0.164062 4.078125 -0.53125 4.078125 -1 C 4.078125 -2.5 4.984375 -6.175781 6.796875 -12.03125 C 6.878906 -12.3125 6.921875 -12.554688 6.921875 -12.765625 C 6.921875 -13.015625 6.8125 -13.140625 6.59375 -13.140625 C 6.351562 -13.140625 6.078125 -13.039062 5.765625 -12.84375 C 5.460938 -12.65625 4.78125 -12.039062 3.71875 -11 Z M 3.71875 -11 "/></g></g></g><g fill="#37160c" fill-opacity="1"><g transform="translate(246.689221, 271.24803)"><g><path d="M 11.078125 -15.21875 C 12.148438 -15.21875 12.976562 -15.007812 13.5625 -14.59375 C 14.144531 -14.175781 14.4375 -13.695312 14.4375 -13.15625 C 14.4375 -12.832031 14.3125 -12.546875 14.0625 -12.296875 C 13.8125 -12.054688 13.515625 -11.9375 13.171875 -11.9375 C 12.941406 -11.9375 12.742188 -11.988281 12.578125 -12.09375 C 12.410156 -12.195312 12.171875 -12.453125 11.859375 -12.859375 C 11.265625 -13.640625 10.675781 -14.03125 10.09375 -14.03125 C 9.601562 -14.03125 9.164062 -13.84375 8.78125 -13.46875 C 8.40625 -13.09375 8.21875 -12.617188 8.21875 -12.046875 C 8.21875 -11.554688 8.335938 -11.078125 8.578125 -10.609375 C 8.816406 -10.148438 9.425781 -9.398438 10.40625 -8.359375 C 11.738281 -6.941406 12.40625 -5.59375 12.40625 -4.3125 C 12.40625 -3.039062 11.863281 -1.925781 10.78125 -0.96875 C 9.695312 -0.0078125 8.300781 0.46875 6.59375 0.46875 C 5.15625 0.46875 4.085938 0.175781 3.390625 -0.40625 C 2.691406 -0.988281 2.34375 -1.707031 2.34375 -2.5625 C 2.34375 -2.988281 2.472656 -3.335938 2.734375 -3.609375 C 3.003906 -3.890625 3.332031 -4.03125 3.71875 -4.03125 C 4.0625 -4.03125 4.351562 -3.914062 4.59375 -3.6875 C 4.832031 -3.46875 4.953125 -3.207031 4.953125 -2.90625 C 4.953125 -2.789062 4.941406 -2.632812 4.921875 -2.4375 C 4.898438 -2.28125 4.890625 -2.148438 4.890625 -2.046875 C 4.890625 -1.648438 5.0625 -1.3125 5.40625 -1.03125 C 5.726562 -0.75 6.171875 -0.609375 6.734375 -0.609375 C 7.390625 -0.609375 7.960938 -0.71875 8.453125 -0.9375 C 8.953125 -1.164062 9.335938 -1.503906 9.609375 -1.953125 C 9.890625 -2.410156 10.03125 -2.863281 10.03125 -3.3125 C 10.03125 -3.738281 9.898438 -4.164062 9.640625 -4.59375 C 9.378906 -5.03125 8.796875 -5.75 7.890625 -6.75 C 6.640625 -8.15625 6.015625 -9.5 6.015625 -10.78125 C 6.015625 -11.96875 6.488281 -13.003906 7.4375 -13.890625 C 8.394531 -14.773438 9.609375 -15.21875 11.078125 -15.21875 Z M 11.078125 -15.21875 "/></g></g></g><g fill="#37160c" fill-opacity="1"><g transform="translate(257.411464, 271.24803)"><g><path d="M 5.9375 0 L 3.25 0 L 5.625 -9.84375 C 6.757812 -14.71875 7.503906 -17.722656 7.859375 -18.859375 C 8.222656 -19.992188 8.65625 -20.925781 9.15625 -21.65625 C 9.65625 -22.394531 10.28125 -23.050781 11.03125 -23.625 C 11.78125 -24.207031 12.59375 -24.648438 13.46875 -24.953125 C 14.34375 -25.265625 15.109375 -25.421875 15.765625 -25.421875 C 16.398438 -25.421875 16.867188 -25.300781 17.171875 -25.0625 C 17.484375 -24.820312 17.640625 -24.5 17.640625 -24.09375 C 17.640625 -23.757812 17.5 -23.472656 17.21875 -23.234375 C 16.9375 -22.992188 16.585938 -22.875 16.171875 -22.875 C 15.640625 -22.875 14.835938 -22.960938 13.765625 -23.140625 C 13.421875 -23.210938 13.113281 -23.25 12.84375 -23.25 C 12.46875 -23.25 12.113281 -23.113281 11.78125 -22.84375 C 11.457031 -22.582031 11.164062 -22.113281 10.90625 -21.4375 C 10.644531 -20.757812 10.28125 -19.347656 9.8125 -17.203125 L 8.53125 -11.421875 C 9.6875 -12.734375 10.882812 -13.742188 12.125 -14.453125 C 13.0625 -14.984375 13.957031 -15.25 14.8125 -15.25 C 15.414062 -15.25 15.925781 -15.019531 16.34375 -14.5625 C 16.757812 -14.113281 16.96875 -13.546875 16.96875 -12.859375 C 16.96875 -11.578125 16.296875 -10.425781 14.953125 -9.40625 C 13.617188 -8.394531 11.578125 -7.851562 8.828125 -7.78125 C 9.753906 -7.375 10.492188 -6.925781 11.046875 -6.4375 C 11.609375 -5.945312 12.15625 -5.269531 12.6875 -4.40625 C 13.226562 -3.550781 13.921875 -2.113281 14.765625 -0.09375 C 15.765625 2.3125 16.691406 3.914062 17.546875 4.71875 C 18.390625 5.507812 19.316406 5.90625 20.328125 5.90625 C 20.910156 5.90625 21.394531 5.773438 21.78125 5.515625 C 22.164062 5.253906 22.359375 4.992188 22.359375 4.734375 C 22.359375 4.566406 22.300781 4.335938 22.1875 4.046875 C 22.050781 3.734375 21.984375 3.46875 21.984375 3.25 C 21.984375 2.976562 22.09375 2.734375 22.3125 2.515625 C 22.53125 2.296875 22.785156 2.1875 23.078125 2.1875 C 23.410156 2.1875 23.695312 2.320312 23.9375 2.59375 C 24.175781 2.863281 24.296875 3.222656 24.296875 3.671875 C 24.296875 4.535156 23.898438 5.300781 23.109375 5.96875 C 22.316406 6.644531 21.28125 6.984375 20 6.984375 C 18.6875 6.984375 17.507812 6.648438 16.46875 5.984375 C 15.4375 5.328125 14.46875 4.269531 13.5625 2.8125 C 13.050781 1.96875 12.148438 0.0507812 10.859375 -2.9375 C 10.253906 -4.363281 9.710938 -5.429688 9.234375 -6.140625 C 8.859375 -6.691406 8.347656 -7.238281 7.703125 -7.78125 Z M 7.84375 -8.546875 C 9.46875 -8.535156 10.78125 -8.691406 11.78125 -9.015625 C 12.789062 -9.335938 13.507812 -9.769531 13.9375 -10.3125 C 14.363281 -10.851562 14.578125 -11.445312 14.578125 -12.09375 C 14.578125 -12.539062 14.453125 -12.90625 14.203125 -13.1875 C 13.960938 -13.46875 13.664062 -13.609375 13.3125 -13.609375 C 12.175781 -13.609375 10.441406 -12.34375 8.109375 -9.8125 Z M 7.84375 -8.546875 "/></g></g></g><g fill="#37160c" fill-opacity="1"><g transform="translate(272.577574, 271.24803)"><g><path d="M 12.609375 -4.53125 L 13.203125 -3.734375 C 10.253906 -0.929688 7.726562 0.46875 5.625 0.46875 C 4.769531 0.46875 4.113281 0.179688 3.65625 -0.390625 C 3.207031 -0.972656 2.984375 -1.90625 2.984375 -3.1875 C 2.984375 -5.757812 3.765625 -8.320312 5.328125 -10.875 C 7.085938 -13.78125 9.191406 -15.234375 11.640625 -15.234375 C 12.492188 -15.234375 13.144531 -15.019531 13.59375 -14.59375 C 14.039062 -14.164062 14.265625 -13.578125 14.265625 -12.828125 C 14.265625 -12.046875 13.992188 -11.273438 13.453125 -10.515625 C 12.910156 -9.753906 11.941406 -8.960938 10.546875 -8.140625 C 9.847656 -7.742188 8.359375 -7.03125 6.078125 -6 C 5.960938 -5.34375 5.90625 -4.722656 5.90625 -4.140625 C 5.90625 -3.285156 6.039062 -2.6875 6.3125 -2.34375 C 6.582031 -2.007812 6.976562 -1.84375 7.5 -1.84375 C 7.988281 -1.84375 8.53125 -1.984375 9.125 -2.265625 C 9.914062 -2.628906 11.078125 -3.382812 12.609375 -4.53125 Z M 6.28125 -7.15625 C 8.226562 -8.019531 9.6875 -8.953125 10.65625 -9.953125 C 11.320312 -10.648438 11.65625 -11.34375 11.65625 -12.03125 C 11.65625 -12.550781 11.519531 -12.960938 11.25 -13.265625 C 10.976562 -13.578125 10.625 -13.734375 10.1875 -13.734375 C 9.738281 -13.734375 9.304688 -13.5625 8.890625 -13.21875 C 8.328125 -12.78125 7.851562 -12.109375 7.46875 -11.203125 C 6.90625 -9.878906 6.507812 -8.53125 6.28125 -7.15625 Z M 6.28125 -7.15625 "/></g></g></g><g fill="#37160c" fill-opacity="1"><g transform="translate(284.040468, 271.24803)"><g><path d="M 6.484375 0 L 3.796875 0 L 5.0625 -4.859375 C 5.675781 -7.242188 6.210938 -9.507812 6.671875 -11.65625 C 6.773438 -12.1875 6.828125 -12.515625 6.828125 -12.640625 C 6.828125 -12.929688 6.695312 -13.078125 6.4375 -13.078125 C 6.25 -13.078125 5.96875 -12.953125 5.59375 -12.703125 C 5.226562 -12.460938 4.554688 -11.851562 3.578125 -10.875 L 3.015625 -11.515625 C 4.171875 -12.753906 5.320312 -13.679688 6.46875 -14.296875 C 7.625 -14.921875 8.507812 -15.234375 9.125 -15.234375 C 9.34375 -15.234375 9.515625 -15.179688 9.640625 -15.078125 C 9.765625 -14.972656 9.828125 -14.84375 9.828125 -14.6875 C 9.828125 -14.53125 9.75 -14.113281 9.59375 -13.4375 L 8.8125 -10.203125 C 10.03125 -12.117188 11.40625 -13.757812 12.9375 -15.125 C 13.664062 -15.769531 14.28125 -16.09375 14.78125 -16.09375 C 15.144531 -16.09375 15.445312 -15.972656 15.6875 -15.734375 C 15.925781 -15.503906 16.046875 -15.234375 16.046875 -14.921875 C 16.046875 -14.597656 15.925781 -14.320312 15.6875 -14.09375 C 15.457031 -13.863281 14.867188 -13.59375 13.921875 -13.28125 C 13.035156 -12.976562 12.3125 -12.613281 11.75 -12.1875 C 11.1875 -11.769531 10.570312 -11.128906 9.90625 -10.265625 C 9.238281 -9.398438 8.769531 -8.644531 8.5 -8 C 8.238281 -7.351562 7.835938 -5.851562 7.296875 -3.5 Z M 6.484375 0 "/></g></g></g><g fill="#37160c" fill-opacity="1"><g transform="translate(294.022073, 271.24803)"><g><path d="M 11.078125 -15.21875 C 12.148438 -15.21875 12.976562 -15.007812 13.5625 -14.59375 C 14.144531 -14.175781 14.4375 -13.695312 14.4375 -13.15625 C 14.4375 -12.832031 14.3125 -12.546875 14.0625 -12.296875 C 13.8125 -12.054688 13.515625 -11.9375 13.171875 -11.9375 C 12.941406 -11.9375 12.742188 -11.988281 12.578125 -12.09375 C 12.410156 -12.195312 12.171875 -12.453125 11.859375 -12.859375 C 11.265625 -13.640625 10.675781 -14.03125 10.09375 -14.03125 C 9.601562 -14.03125 9.164062 -13.84375 8.78125 -13.46875 C 8.40625 -13.09375 8.21875 -12.617188 8.21875 -12.046875 C 8.21875 -11.554688 8.335938 -11.078125 8.578125 -10.609375 C 8.816406 -10.148438 9.425781 -9.398438 10.40625 -8.359375 C 11.738281 -6.941406 12.40625 -5.59375 12.40625 -4.3125 C 12.40625 -3.039062 11.863281 -1.925781 10.78125 -0.96875 C 9.695312 -0.0078125 8.300781 0.46875 6.59375 0.46875 C 5.15625 0.46875 4.085938 0.175781 3.390625 -0.40625 C 2.691406 -0.988281 2.34375 -1.707031 2.34375 -2.5625 C 2.34375 -2.988281 2.472656 -3.335938 2.734375 -3.609375 C 3.003906 -3.890625 3.332031 -4.03125 3.71875 -4.03125 C 4.0625 -4.03125 4.351562 -3.914062 4.59375 -3.6875 C 4.832031 -3.46875 4.953125 -3.207031 4.953125 -2.90625 C 4.953125 -2.789062 4.941406 -2.632812 4.921875 -2.4375 C 4.898438 -2.28125 4.890625 -2.148438 4.890625 -2.046875 C 4.890625 -1.648438 5.0625 -1.3125 5.40625 -1.03125 C 5.726562 -0.75 6.171875 -0.609375 6.734375 -0.609375 C 7.390625 -0.609375 7.960938 -0.71875 8.453125 -0.9375 C 8.953125 -1.164062 9.335938 -1.503906 9.609375 -1.953125 C 9.890625 -2.410156 10.03125 -2.863281 10.03125 -3.3125 C 10.03125 -3.738281 9.898438 -4.164062 9.640625 -4.59375 C 9.378906 -5.03125 8.796875 -5.75 7.890625 -6.75 C 6.640625 -8.15625 6.015625 -9.5 6.015625 -10.78125 C 6.015625 -11.96875 6.488281 -13.003906 7.4375 -13.890625 C 8.394531 -14.773438 9.609375 -15.21875 11.078125 -15.21875 Z M 11.078125 -15.21875 "/></g></g></g></svg>